<?xml version="1.0" standalone="no"?>
<!DOCTYPE svg PUBLIC "-//W3C//DTD SVG 20010904//EN"
 "http://www.w3.org/TR/2001/REC-SVG-20010904/DTD/svg10.dtd">
<svg version="1.0" xmlns="http://www.w3.org/2000/svg"
 width="1148.000000pt" height="1287.000000pt" viewBox="0 0 1148.000000 1287.000000"
 preserveAspectRatio="xMidYMid meet">

<g transform="translate(0.000000,1287.000000) scale(0.100000,-0.100000)"
fill="#000" stroke="none">
<path d="M5255 12861 l-40 -6 -3 -54 c-5 -95 -2 -101 72 -101 35 0 78 3 96 7
l33 6 -7 70 c-3 38 -9 73 -12 78 -6 10 -76 10 -139 0z"/>
<path d="M5718 12863 c-15 -4 -18 -16 -18 -74 l0 -69 150 0 150 0 0 69 c0 54
-4 70 -16 75 -18 7 -240 6 -266 -1z"/>
<path d="M6277 12853 c-2 -4 -8 -38 -11 -74 -7 -65 -7 -67 17 -73 53 -13 194
-19 201 -8 4 6 9 40 13 76 l6 64 -29 5 c-59 12 -192 19 -197 10z"/>
<path d="M4525 12775 c-44 -8 -82 -14 -84 -14 -7 -2 9 -135 17 -143 10 -10
183 9 195 21 4 4 2 40 -4 79 -9 56 -16 72 -28 71 -9 -1 -52 -7 -96 -14z"/>
<path d="M7031 12758 c-5 -13 -12 -46 -16 -75 -6 -50 -6 -51 22 -57 101 -22
208 -35 215 -28 5 5 11 38 15 74 l6 66 -74 15 c-141 30 -158 30 -168 5z"/>
<path d="M3975 12674 c-60 -13 -113 -28 -117 -32 -3 -4 1 -37 10 -74 14 -62
18 -68 41 -68 31 0 137 24 204 46 53 18 55 23 32 102 -19 62 -13 61 -170 26z"/>
<path d="M5474 12680 c-61 -4 -116 -10 -122 -14 -7 -4 -12 -32 -12 -66 0 -44
4 -59 16 -64 9 -3 119 -3 244 0 l228 7 5 38 c3 20 2 52 -2 71 l-7 33 -119 1
c-66 1 -170 -2 -231 -6z"/>
<path d="M5883 12683 c-9 -3 -13 -28 -13 -72 l0 -68 98 -6 c53 -4 161 -7 240
-7 l142 0 0 64 c0 45 -4 65 -14 69 -8 3 -90 8 -182 12 -93 3 -189 7 -214 10
-25 2 -51 1 -57 -2z"/>
<path d="M7535 12669 c-3 -4 -8 -34 -11 -67 l-7 -59 79 -21 c67 -18 217 -52
229 -52 2 0 9 17 14 38 11 37 15 102 7 102 -2 0 -46 11 -98 25 -113 30 -207
45 -213 34z"/>
<path d="M5233 12664 c-14 -6 -17 -72 -7 -111 5 -19 13 -23 46 -23 l39 0 -3
68 c-3 67 -3 67 -33 69 -16 1 -36 0 -42 -3z"/>
<path d="M6384 12647 c-3 -8 -4 -39 -2 -68 l3 -54 42 -3 c37 -3 43 0 48 21 4
13 5 43 3 68 l-3 44 -43 3 c-29 2 -44 -1 -48 -11z"/>
<path d="M4602 12593 c-21 -4 -22 -8 -16 -51 12 -81 20 -94 56 -90 30 3 33 6
36 40 7 84 -15 113 -76 101z"/>
<path d="M6994 12554 c-8 -20 -14 -50 -12 -67 3 -30 7 -33 51 -41 26 -4 50 -6
53 -3 3 2 10 32 16 66 14 72 8 81 -55 81 -34 0 -40 -4 -53 -36z"/>
<path d="M4389 12565 c-108 -17 -318 -64 -342 -76 -18 -10 -18 -14 4 -100 l9
-36 232 40 c128 22 244 44 256 48 22 8 23 13 17 52 -13 75 -21 87 -57 86 -18
-1 -72 -7 -119 -14z"/>
<path d="M7146 12561 c-4 -5 -9 -36 -12 -68 l-6 -59 213 -44 c118 -24 224 -45
236 -48 18 -3 23 2 32 34 6 22 11 53 11 71 0 29 -4 33 -41 43 -80 22 -217 50
-318 65 -119 18 -108 17 -115 6z"/>
<path d="M3433 12529 c-51 -18 -93 -37 -93 -43 0 -25 42 -136 52 -136 16 0
192 52 215 64 l22 11 -22 65 c-20 59 -25 65 -52 67 -16 2 -72 -11 -122 -28z"/>
<path d="M8085 12465 c-10 -36 -16 -67 -14 -68 13 -10 221 -78 226 -74 3 3 16
35 29 72 l24 66 -28 10 c-49 20 -185 59 -203 59 -12 0 -21 -17 -34 -65z"/>
<path d="M5577 12503 c-15 -4 -17 -14 -15 -66 l3 -62 280 0 280 0 0 60 0 60
-55 7 c-62 7 -466 8 -493 1z"/>
<path d="M5248 12493 c-14 -3 -18 -15 -18 -46 0 -23 3 -53 7 -66 l6 -24 123 7
c68 3 130 9 138 12 17 7 29 63 20 98 l-6 26 -127 -1 c-69 -1 -134 -3 -143 -6z"/>
<path d="M6160 12437 l0 -66 33 -5 c80 -12 255 -17 262 -6 4 6 9 35 12 64 l6
53 -34 6 c-19 4 -89 9 -156 13 l-123 7 0 -66z"/>
<path d="M3777 12425 c-104 -29 -199 -57 -212 -63 l-24 -11 20 -58 c11 -32 23
-61 27 -65 4 -3 79 14 167 39 88 25 184 52 214 60 l54 14 -6 43 c-8 58 -24 96
-39 95 -7 -1 -98 -25 -201 -54z"/>
<path d="M7649 12406 c-6 -30 -9 -61 -6 -69 3 -8 42 -23 94 -36 48 -12 152
-40 231 -63 79 -22 147 -36 151 -32 8 9 41 101 41 115 0 16 -418 139 -475 139
-20 0 -25 -7 -36 -54z"/>
<path d="M4535 12404 c-123 -16 -147 -26 -141 -56 3 -13 8 -40 11 -60 3 -21
11 -38 18 -38 7 0 74 9 150 21 136 21 137 22 137 48 0 14 -5 43 -11 64 -12 43
-8 43 -164 21z"/>
<path d="M6967 12413 c-4 -6 -10 -35 -15 -66 -10 -66 -32 -55 186 -90 l144
-24 9 24 c11 30 12 100 1 107 -12 7 -198 44 -263 51 -33 4 -59 3 -62 -2z"/>
<path d="M4243 12355 c-105 -20 -357 -82 -397 -99 l-35 -15 14 -47 c8 -26 18
-51 23 -56 5 -5 49 1 109 16 82 21 392 86 409 86 8 0 4 79 -6 104 -11 29 -14
29 -117 11z"/>
<path d="M7335 12328 c-4 -14 -5 -42 -3 -64 l3 -39 260 -62 c143 -34 263 -59
267 -57 7 5 32 114 26 119 -14 13 -409 109 -501 121 -43 6 -46 5 -52 -18z"/>
<path d="M3432 12325 c-31 -14 -33 -17 -27 -47 4 -18 14 -48 21 -67 15 -36 29
-38 97 -12 31 12 32 18 8 86 -20 57 -42 65 -99 40z"/>
<path d="M5420 12331 l-45 -6 0 -60 0 -60 191 -3 c105 -1 208 1 230 6 44 9 49
21 39 88 l-6 44 -182 -2 c-100 0 -202 -4 -227 -7z"/>
<path d="M5870 12277 l0 -66 43 -5 c23 -3 121 -8 218 -11 158 -6 177 -5 183
10 8 23 8 113 -1 118 -5 3 -106 8 -225 12 l-218 7 0 -65z"/>
<path d="M5253 12323 c-8 -3 -13 -23 -13 -49 0 -54 27 -87 68 -82 23 3 28 9
30 37 2 19 1 50 -3 68 -5 29 -9 33 -38 32 -18 0 -38 -3 -44 -6z"/>
<path d="M6355 12287 c-4 -18 -5 -49 -3 -68 3 -33 4 -34 48 -34 l44 0 8 45
c14 74 5 90 -47 90 -42 0 -44 -2 -50 -33z"/>
<path d="M8177 12263 c-25 -69 -22 -80 19 -93 41 -14 45 -11 67 48 23 59 22
68 -14 81 -49 17 -54 14 -72 -36z"/>
<path d="M2626 12235 c-86 -35 -92 -43 -72 -97 33 -84 33 -84 123 -54 111 37
109 36 89 88 -25 61 -44 88 -64 88 -9 0 -44 -11 -76 -25z"/>
<path d="M4625 12248 c-291 -44 -501 -84 -509 -97 -3 -4 1 -29 8 -57 12 -46
15 -49 42 -46 81 8 541 83 554 91 27 15 6 123 -23 120 -7 -1 -39 -6 -72 -11z"/>
<path d="M8884 12205 c-13 -31 -24 -60 -24 -65 0 -12 191 -100 219 -100 8 0
67 118 60 123 -11 8 -215 97 -222 97 -4 0 -19 -25 -33 -55z"/>
<path d="M6930 12224 c-6 -14 -10 -41 -10 -59 0 -39 20 -55 69 -55 35 0 46 16
54 78 5 39 3 44 -20 53 -47 18 -83 11 -93 -17z"/>
<path d="M3690 12216 c-146 -44 -215 -67 -227 -74 -10 -6 -8 -22 8 -70 11 -34
22 -62 24 -62 11 0 302 103 308 110 10 9 -7 79 -25 102 -12 15 -19 15 -88 -6z"/>
<path d="M7075 12197 c-4 -19 -5 -47 -3 -63 l3 -29 224 -43 c143 -28 227 -40
233 -34 6 6 11 34 12 64 l1 53 -210 42 c-115 23 -220 42 -232 42 -17 1 -23 -6
-28 -32z"/>
<path d="M7909 12155 c-7 -34 -9 -59 -3 -64 10 -10 244 -81 266 -81 14 0 48
69 48 98 0 16 -67 45 -178 77 -120 35 -118 35 -133 -30z"/>
<path d="M5385 12162 l-40 -7 35 -26 c91 -69 57 -64 472 -67 l378 -3 53 24
c29 13 61 32 71 43 19 19 19 19 -20 27 -50 10 -896 18 -949 9z"/>
<path d="M4045 12143 c-66 -14 -323 -86 -357 -100 -38 -15 -39 -17 -33 -52 4
-20 13 -46 21 -58 l14 -22 57 20 c31 11 124 38 205 61 97 27 148 45 148 54 0
22 -24 104 -30 103 -3 -1 -14 -3 -25 -6z"/>
<path d="M7584 12116 c-3 -8 -6 -36 -7 -62 l-2 -47 215 -63 c118 -34 218 -59
222 -56 12 12 32 98 26 114 -6 14 -23 20 -253 82 -167 46 -194 50 -201 32z"/>
<path d="M2690 12055 c-111 -38 -205 -79 -213 -92 -6 -9 35 -97 54 -117 5 -5
73 20 164 60 148 66 155 70 149 94 -7 32 -36 83 -49 86 -6 1 -53 -12 -105 -31z"/>
<path d="M4397 12055 c-323 -55 -707 -158 -707 -190 0 -15 101 -45 151 -45 19
0 193 36 388 79 l353 79 49 48 c27 27 49 52 49 56 0 15 -83 6 -283 -27z"/>
<path d="M8807 12028 c-15 -34 -24 -65 -20 -69 15 -14 308 -137 316 -132 11 6
57 100 57 115 0 7 -9 19 -20 26 -38 23 -271 122 -289 122 -12 0 -26 -20 -44
-62z"/>
<path d="M7000 12071 c0 -7 50 -52 112 -99 9 -7 155 -44 325 -83 443 -100 400
-94 474 -75 35 9 68 21 73 26 20 20 -470 153 -754 204 -175 31 -230 38 -230
27z"/>
<path d="M2145 12015 c-38 -19 -81 -43 -94 -53 l-23 -19 26 -52 c15 -28 33
-54 41 -57 16 -7 195 85 195 99 0 14 -60 117 -68 117 -4 0 -38 -16 -77 -35z"/>
<path d="M9351 11998 c-17 -29 -30 -60 -28 -68 2 -15 163 -104 207 -115 22 -5
28 0 53 44 15 27 27 56 27 64 0 13 -176 115 -217 125 -7 2 -26 -21 -42 -50z"/>
<path d="M5486 12018 c-3 -7 -7 -37 -10 -65 l-5 -53 57 0 c90 0 102 6 102 49
0 76 -5 81 -76 81 -43 0 -66 -4 -68 -12z"/>
<path d="M5667 12024 c-9 -9 -9 -87 -1 -108 5 -14 32 -16 201 -16 l194 0 -3
63 -3 62 -191 3 c-104 1 -193 -1 -197 -4z"/>
<path d="M6101 12021 c-10 -7 -12 -22 -7 -64 8 -62 15 -67 99 -67 l48 0 -3 68
-3 67 -60 3 c-33 1 -66 -2 -74 -7z"/>
<path d="M6303 12023 c-26 -5 -38 -48 -29 -98 6 -31 10 -34 54 -39 115 -13
168 -16 178 -9 6 5 14 33 18 64 8 64 8 64 -70 74 -83 10 -128 13 -151 8z"/>
<path d="M5225 12009 c-84 -12 -85 -13 -85 -61 0 -71 1 -71 147 -63 72 4 135
10 141 14 6 4 14 32 18 64 l7 57 -84 -1 c-46 -1 -111 -5 -144 -10z"/>
<path d="M3547 11993 c-36 -15 -38 -18 -33 -47 7 -37 27 -53 74 -62 53 -10 65
9 44 71 -19 56 -30 61 -85 38z"/>
<path d="M8065 11947 c-20 -68 -19 -74 10 -81 36 -9 60 7 79 55 19 47 16 53
-36 67 l-38 10 -15 -51z"/>
<path d="M4727 11974 c-120 -18 -117 -16 -95 -91 18 -62 19 -63 54 -63 19 0
66 5 105 11 67 12 69 13 69 41 0 45 -21 118 -34 117 -6 -1 -50 -7 -99 -15z"/>
<path d="M2397 11934 c-54 -19 -255 -124 -269 -142 -10 -11 -6 -25 16 -68 16
-30 35 -54 42 -54 19 0 314 148 314 158 0 4 -15 32 -33 63 l-32 56 -38 -13z"/>
<path d="M6821 11919 c-6 -18 -11 -44 -11 -59 0 -27 1 -28 114 -45 62 -10 120
-16 128 -12 13 4 31 56 40 112 3 14 -112 34 -194 35 -65 0 -66 0 -77 -31z"/>
<path d="M2788 11914 c-32 -15 -58 -31 -58 -36 0 -5 12 -31 26 -59 29 -57 32
-58 124 -16 l49 22 -27 55 c-15 30 -34 56 -42 57 -8 2 -41 -9 -72 -23z"/>
<path d="M4503 11929 c-31 -9 -33 -13 -33 -52 0 -23 3 -53 7 -66 6 -22 9 -23
59 -17 85 10 83 7 66 82 -17 70 -25 74 -99 53z"/>
<path d="M9192 11918 c-15 -20 -52 -96 -52 -108 0 -11 299 -160 320 -160 5 0
23 26 39 59 l30 58 -72 41 c-66 38 -239 122 -250 122 -2 0 -9 -6 -15 -12z"/>
<path d="M7116 11867 c-9 -30 -16 -60 -16 -66 0 -11 56 -28 133 -41 57 -9 61
-4 62 75 0 48 -1 50 -36 61 -19 7 -56 15 -81 19 l-46 7 -16 -55z"/>
<path d="M8740 11878 c-28 -62 -26 -74 20 -92 22 -9 42 -16 45 -16 6 0 55 97
55 109 0 9 -71 41 -91 41 -5 0 -19 -19 -29 -42z"/>
<path d="M4220 11866 c-185 -43 -230 -56 -230 -71 0 -26 33 -105 43 -105 7 1
100 20 207 43 l195 42 3 39 c2 22 1 50 -2 63 -8 31 -36 30 -216 -11z"/>
<path d="M2544 11802 c-198 -94 -183 -80 -154 -141 13 -28 27 -51 32 -51 10 0
294 125 317 139 11 7 8 20 -18 65 -18 31 -33 56 -34 56 -1 0 -66 -31 -143 -68z"/>
<path d="M5509 11863 c-41 -5 -49 -18 -49 -90 l0 -43 143 0 c78 0 159 3 180 6
l37 7 0 63 0 64 -137 -2 c-76 -1 -154 -3 -174 -5z"/>
<path d="M5861 11851 c-8 -13 -10 -39 -6 -65 7 -43 8 -44 48 -50 37 -4 298
-10 336 -7 10 1 12 14 9 56 -3 31 -9 60 -15 66 -5 5 -88 12 -185 16 -174 6
-176 6 -187 -16z"/>
<path d="M7335 11848 c-3 -13 -6 -41 -8 -63 l-2 -40 125 -32 c69 -18 139 -32
156 -32 29 -1 33 3 43 43 11 46 14 86 6 86 -2 0 -65 14 -138 30 -163 36 -175
37 -182 8z"/>
<path d="M8872 11825 c-12 -25 -22 -52 -22 -59 0 -7 26 -27 58 -44 64 -34 308
-142 319 -142 10 0 43 79 43 103 0 17 -89 66 -255 140 -123 54 -118 54 -143 2z"/>
<path d="M5363 11853 c-24 -9 -10 -133 15 -133 26 0 43 29 49 83 l6 57 -29 -1
c-16 0 -35 -3 -41 -6z"/>
<path d="M5165 11845 c-5 -2 -31 -6 -57 -10 l-48 -6 0 -52 c0 -78 3 -80 106
-73 160 12 154 9 154 66 0 77 -3 80 -79 79 -36 0 -70 -2 -76 -4z"/>
<path d="M6280 11808 c0 -67 8 -85 41 -92 52 -10 60 0 57 68 l-3 61 -47 3 -48
3 0 -43z"/>
<path d="M6410 11781 c0 -33 5 -63 11 -66 5 -4 55 -9 109 -12 l98 -6 7 57 c4
31 5 59 2 62 -8 8 -126 24 -179 24 l-48 0 0 -59z"/>
<path d="M4935 11819 c-38 -4 -85 -11 -104 -14 l-33 -6 4 -55 c3 -30 9 -59 15
-65 12 -12 191 5 205 19 12 12 6 125 -7 127 -5 1 -41 -1 -80 -6z"/>
<path d="M6666 11755 c-4 -39 -3 -61 4 -65 6 -4 54 -12 107 -19 112 -13 113
-13 113 65 0 50 -1 52 -32 58 -18 4 -67 9 -109 13 l-76 6 -7 -58z"/>
<path d="M3880 11787 c-31 -11 -35 -16 -32 -42 4 -35 21 -95 28 -95 14 0 100
24 105 29 4 3 -1 31 -10 61 -19 61 -31 68 -91 47z"/>
<path d="M7690 11761 c-5 -20 -13 -51 -16 -68 l-6 -32 71 -21 c39 -12 78 -19
86 -16 20 7 22 146 3 146 -7 1 -39 7 -70 14 l-58 14 -10 -37z"/>
<path d="M2795 11732 c-197 -80 -184 -69 -148 -133 22 -39 36 -53 50 -52 11 1
73 26 139 55 130 58 149 77 133 131 -18 62 -22 62 -174 -1z"/>
<path d="M4680 11781 c-12 -8 -12 -17 3 -64 18 -57 35 -70 74 -56 19 7 21 14
17 46 -11 81 -12 83 -47 83 -17 0 -39 -4 -47 -9z"/>
<path d="M6925 11737 c-10 -65 -4 -80 34 -91 39 -11 49 -2 71 64 16 49 10 56
-52 65 l-46 7 -7 -45z"/>
<path d="M3765 11763 c-35 -9 -208 -65 -263 -85 -53 -20 -54 -20 -47 -55 9
-52 26 -83 44 -83 9 0 86 22 171 48 l155 48 -2 48 c-3 47 -17 87 -31 85 -4 -1
-16 -4 -27 -6z"/>
<path d="M4495 11754 c-171 -30 -265 -55 -265 -70 0 -26 22 -104 31 -110 5 -3
64 6 131 20 68 13 143 27 168 31 48 7 110 24 110 30 0 3 -9 29 -21 60 -24 63
-21 63 -154 39z"/>
<path d="M8670 11715 c-12 -30 -21 -58 -18 -60 11 -11 259 -115 279 -117 19
-3 26 6 43 44 15 37 17 50 7 61 -12 15 -220 111 -264 122 -22 6 -26 1 -47 -50z"/>
<path d="M7066 11717 c-30 -74 -30 -75 11 -86 56 -15 220 -48 279 -56 48 -6
52 -5 58 17 3 13 6 40 6 60 l0 37 -77 16 c-43 9 -108 23 -145 31 -102 21 -115
20 -132 -19z"/>
<path d="M7876 11719 c-3 -17 -6 -51 -6 -74 l0 -43 127 -40 c70 -23 131 -38
135 -36 11 7 34 62 42 102 l7 30 -138 46 c-76 25 -143 46 -149 46 -6 0 -14
-14 -18 -31z"/>
<path d="M2285 11679 c-81 -42 -85 -46 -74 -76 5 -16 18 -39 28 -52 l18 -23
44 20 c82 37 83 39 58 100 -12 28 -24 52 -28 52 -3 -1 -24 -10 -46 -21z"/>
<path d="M5458 11693 c-17 -4 -47 -107 -35 -119 3 -3 33 -3 66 1 l61 7 0 49
c0 62 -26 79 -92 62z"/>
<path d="M5586 11692 c-9 -9 -7 -76 4 -92 8 -12 45 -15 222 -17 117 -1 226 1
241 4 27 5 28 7 25 56 l-3 52 -242 2 c-133 1 -244 -1 -247 -5z"/>
<path d="M6128 11693 c-13 -3 -18 -15 -18 -43 0 -67 3 -70 89 -70 l78 0 -7 45
c-4 26 -11 50 -16 54 -11 11 -103 21 -126 14z"/>
<path d="M4155 11683 c-89 -19 -243 -58 -257 -65 -19 -9 -23 -49 -12 -106 l6
-30 87 19 c127 28 232 61 238 75 6 16 -21 107 -33 110 -5 1 -18 0 -29 -3z"/>
<path d="M5270 11681 l-45 -6 -3 -45 c-3 -67 4 -73 80 -65 36 4 70 10 76 14 6
3 14 30 18 59 l7 52 -44 -2 c-24 0 -64 -4 -89 -7z"/>
<path d="M6304 11628 c4 -29 8 -53 9 -54 1 -1 35 -6 75 -9 l72 -8 0 56 c0 65
-3 67 -97 67 l-66 0 7 -52z"/>
<path d="M5003 11658 c-68 -11 -68 -10 -56 -82 l6 -39 86 7 c123 9 145 16 149
50 2 16 1 39 -2 52 -6 22 -11 24 -64 23 -31 -1 -85 -6 -119 -11z"/>
<path d="M7461 11647 c-5 -13 -11 -39 -13 -58 l-3 -34 184 -48 c205 -54 201
-55 201 25 l0 47 -67 20 c-98 29 -265 71 -280 71 -8 0 -17 -11 -22 -23z"/>
<path d="M9291 11638 c-34 -86 -35 -84 27 -111 43 -20 60 -23 70 -15 15 13 52
82 52 98 0 12 -96 60 -120 60 -9 0 -21 -15 -29 -32z"/>
<path d="M6494 11646 c-3 -8 -4 -29 -2 -47 4 -40 27 -48 148 -52 l85 -2 3 47
3 46 -51 11 c-75 16 -179 14 -186 -3z"/>
<path d="M2498 11606 c-102 -45 -218 -108 -218 -119 0 -18 40 -85 55 -91 29
-11 41 -7 179 60 l136 65 -30 60 c-17 32 -34 59 -38 59 -4 0 -42 -16 -84 -34z"/>
<path d="M4815 11635 c-5 -2 -27 -6 -47 -10 -44 -7 -47 -19 -18 -75 20 -39 22
-40 63 -35 115 16 110 13 103 47 -3 17 -6 41 -6 54 0 22 -4 24 -42 23 -24 0
-47 -2 -53 -4z"/>
<path d="M6766 11625 c-3 -9 -6 -32 -6 -51 0 -41 17 -50 114 -60 l65 -7 22 46
c13 26 20 49 18 52 -6 5 -78 19 -160 30 -38 5 -48 3 -53 -10z"/>
<path d="M9004 11569 c-14 -28 -22 -55 -17 -59 4 -5 72 -38 151 -75 97 -45
149 -64 163 -60 21 7 59 60 59 83 0 13 -292 162 -317 162 -7 0 -24 -23 -39
-51z"/>
<path d="M4605 11603 c-43 -6 -47 -15 -34 -67 l11 -46 47 0 c25 1 58 6 73 13
l27 12 -21 48 c-22 50 -24 51 -103 40z"/>
<path d="M2860 11576 c-149 -53 -433 -191 -428 -208 3 -7 23 -18 46 -26 41
-13 43 -13 139 31 54 25 132 59 174 76 42 18 84 40 92 49 17 19 50 92 45 98
-2 1 -33 -7 -68 -20z"/>
<path d="M3780 11587 c-43 -15 -47 -33 -21 -93 19 -43 23 -46 48 -39 39 9 51
22 47 48 -15 107 -13 105 -74 84z"/>
<path d="M6998 11554 c-11 -25 -16 -50 -11 -54 4 -4 29 -11 55 -14 l47 -7 10
38 c16 55 14 62 -15 73 -49 19 -64 13 -86 -36z"/>
<path d="M8710 11577 c0 -7 21 -39 48 -71 45 -56 55 -62 215 -136 l169 -78 45
26 c38 21 43 27 31 38 -16 17 -366 181 -450 212 -43 16 -58 18 -58 9z"/>
<path d="M4415 11569 c-85 -16 -339 -79 -354 -88 -11 -7 -11 -15 1 -52 17 -52
7 -52 208 -9 74 16 153 32 175 35 22 4 55 11 73 17 31 9 33 12 26 41 -15 71
-24 75 -129 56z"/>
<path d="M7153 11572 c-7 -5 -16 -29 -19 -54 l-7 -47 39 -6 c59 -10 342 -73
400 -90 71 -21 91 -19 98 8 9 33 7 75 -4 82 -7 4 -485 116 -493 115 -1 0 -8
-4 -14 -8z"/>
<path d="M3041 11525 c-128 -47 -129 -48 -86 -117 l35 -56 78 29 c114 43 152
61 152 71 0 25 -52 108 -68 108 -9 -1 -59 -16 -111 -35z"/>
<path d="M3655 11548 c-50 -10 -215 -65 -234 -77 -11 -7 -11 -15 -2 -42 6 -18
18 -43 26 -55 17 -26 23 -25 180 27 123 40 119 36 99 95 -9 27 -19 52 -22 55
-4 3 -25 2 -47 -3z"/>
<path d="M7867 11553 c-4 -3 -7 -28 -7 -55 0 -51 0 -51 68 -72 19 -6 25 -2 36
26 30 73 30 74 -14 92 -43 17 -72 20 -83 9z"/>
<path d="M5460 11541 l-55 -6 -14 -53 c-8 -29 -12 -54 -10 -55 2 -2 184 0 404
3 l400 5 3 49 c2 32 -1 52 -10 57 -14 10 -631 9 -718 0z"/>
<path d="M6226 11518 c-18 -67 -1 -98 52 -98 34 0 34 0 27 36 -12 65 -23 84
-49 84 -16 0 -26 -7 -30 -22z"/>
<path d="M5165 11523 c-11 -2 -30 -6 -42 -9 -26 -5 -31 -42 -13 -89 l10 -26
93 6 c50 4 100 9 109 11 14 4 48 84 48 111 0 4 -181 1 -205 -4z"/>
<path d="M6330 11506 c0 -15 7 -42 14 -61 13 -31 19 -35 53 -35 21 0 115 -9
208 -20 94 -11 191 -20 217 -20 45 0 49 2 68 40 11 21 20 44 20 49 0 19 -242
55 -460 67 l-120 7 0 -27z"/>
<path d="M8471 11476 c-12 -31 -21 -61 -21 -65 0 -9 196 -91 216 -91 16 0 78
120 68 129 -13 11 -173 69 -210 77 -31 6 -32 5 -53 -50z"/>
<path d="M8006 11474 c-9 -26 -16 -51 -16 -55 0 -9 87 -43 164 -65 57 -16 60
-16 73 2 18 24 27 60 20 78 -3 8 -50 29 -104 46 -54 18 -103 35 -109 37 -7 2
-19 -17 -28 -43z"/>
<path d="M4903 11496 c-51 -6 -98 -17 -104 -23 -9 -9 -5 -22 13 -55 l24 -43
75 2 c41 1 93 6 114 11 l40 8 0 54 0 55 -35 2 c-19 0 -77 -4 -127 -11z"/>
<path d="M3935 11455 c-22 -8 -42 -15 -44 -15 -6 0 6 -90 13 -97 7 -7 104 13
125 26 12 7 12 15 0 52 -16 50 -32 56 -94 34z"/>
<path d="M4704 11456 c-3 -8 -2 -34 3 -58 8 -39 11 -43 41 -46 43 -4 51 18 24
74 -22 45 -56 60 -68 30z"/>
<path d="M4505 11436 c-215 -41 -588 -130 -602 -144 -20 -20 -18 -122 3 -122
8 0 65 13 127 30 119 31 416 97 556 123 46 9 85 18 88 21 3 2 2 29 -2 60 -9
66 2 64 -170 32z"/>
<path d="M6925 11410 c-19 -37 -22 -52 -13 -55 7 -2 78 -16 158 -30 200 -36
433 -88 601 -136 78 -22 143 -38 145 -37 4 5 7 50 6 84 -2 24 -8 34 -29 43
-57 22 -462 121 -578 141 -66 11 -136 24 -155 30 -19 5 -52 10 -72 10 -35 0
-39 -3 -63 -50z"/>
<path d="M2776 11409 c-49 -21 -91 -41 -94 -43 -9 -9 20 -74 42 -95 l23 -22
98 43 c54 24 100 48 102 53 5 16 -54 105 -69 104 -7 0 -53 -18 -102 -40z"/>
<path d="M3290 11431 c-86 -28 -160 -62 -160 -75 1 -25 47 -91 66 -94 22 -3
181 51 209 72 16 12 15 16 -9 64 -15 29 -32 52 -39 51 -6 0 -37 -8 -67 -18z"/>
<path d="M7712 11433 c-5 -10 -12 -34 -16 -54 l-6 -36 58 -17 c32 -9 61 -16
65 -16 4 0 7 25 7 55 0 59 -2 62 -72 79 -20 5 -30 2 -36 -11z"/>
<path d="M3774 11410 c-38 -10 -87 -25 -107 -33 -35 -15 -36 -17 -24 -44 30
-69 25 -67 108 -43 41 12 82 24 92 26 13 4 17 17 17 60 0 30 -3 54 -7 53 -5 0
-40 -8 -79 -19z"/>
<path d="M8275 11375 c-11 -27 -14 -50 -9 -55 9 -8 192 -80 206 -80 10 0 39
93 30 102 -11 11 -144 65 -180 73 -28 6 -31 4 -47 -40z"/>
<path d="M8740 11368 c-16 -29 -30 -56 -30 -60 0 -8 81 -51 118 -62 19 -6 25
-2 41 36 38 89 39 86 -24 113 -30 14 -60 25 -65 25 -5 0 -23 -24 -40 -52z"/>
<path d="M7862 11402 c-12 -4 -16 -51 -6 -88 7 -28 180 -86 194 -65 10 17 22
92 16 98 -9 10 -192 59 -204 55z"/>
<path d="M5581 11390 c-18 -8 -22 -15 -17 -33 3 -12 6 -32 6 -44 l0 -23 241 0
c132 0 306 -5 386 -11 79 -6 147 -8 150 -5 10 9 -7 74 -25 96 -18 22 -22 22
-368 26 -225 3 -357 1 -373 -6z"/>
<path d="M5373 11382 c-13 -8 -33 -55 -33 -77 0 -18 71 -27 135 -18 l50 8 0
45 0 45 -70 3 c-38 1 -75 -1 -82 -6z"/>
<path d="M5268 11362 c-7 -26 3 -82 14 -82 10 0 38 61 38 85 0 22 -46 20 -52
-3z"/>
<path d="M6368 11373 c-3 -4 2 -29 9 -55 11 -37 19 -48 34 -48 18 0 20 6 17
53 -3 48 -5 52 -30 55 -14 2 -28 0 -30 -5z"/>
<path d="M5055 11359 c-82 -12 -85 -14 -85 -51 0 -60 5 -62 126 -49 60 6 115
11 122 11 8 0 12 17 12 50 l0 50 -57 -1 c-32 -1 -85 -5 -118 -10z"/>
<path d="M6477 11363 c-4 -3 -7 -28 -7 -54 0 -53 -3 -52 131 -65 74 -7 74 -7
81 66 3 35 3 35 -52 47 -63 13 -143 16 -153 6z"/>
<path d="M3043 11340 c-13 -5 -23 -14 -23 -21 0 -9 36 -62 71 -102 9 -12 49
14 49 32 0 22 -49 101 -63 100 -7 0 -22 -4 -34 -9z"/>
<path d="M3427 11301 c-75 -26 -142 -52 -148 -58 -7 -7 -4 -23 10 -52 12 -22
25 -41 29 -41 4 0 76 23 159 52 96 33 153 58 153 66 0 28 -33 82 -49 81 -9 0
-78 -22 -154 -48z"/>
<path d="M2582 11322 c-37 -18 -38 -35 -1 -97 24 -41 27 -41 80 -15 l40 21
-28 52 c-31 58 -43 63 -91 39z"/>
<path d="M4870 11325 c0 -30 31 -76 48 -73 17 4 20 42 8 75 -8 19 -56 17 -56
-2z"/>
<path d="M6720 11321 c-5 -11 -10 -36 -10 -55 0 -34 2 -36 35 -36 29 0 39 6
61 40 35 52 27 70 -30 70 -35 0 -48 -5 -56 -19z"/>
<path d="M8909 11295 c-11 -25 -19 -54 -17 -63 3 -18 121 -82 150 -82 17 0 77
82 78 106 0 13 -147 84 -174 84 -11 0 -24 -16 -37 -45z"/>
<path d="M4790 11325 c-8 -2 -48 -9 -87 -15 -40 -6 -75 -15 -77 -19 -3 -4 -2
-26 1 -50 l6 -43 51 6 c132 17 176 28 176 44 0 16 -41 83 -50 81 -3 -1 -12 -3
-20 -4z"/>
<path d="M6850 11277 c-23 -40 -26 -53 -16 -59 18 -10 125 -26 131 -20 8 8 6
112 -2 112 -5 0 -25 4 -46 9 l-38 9 -29 -51z"/>
<path d="M8099 11309 c-5 -11 -9 -36 -7 -56 3 -36 3 -37 103 -74 55 -21 103
-38 106 -39 8 0 25 42 35 82 6 26 2 29 -42 48 -27 12 -79 30 -116 40 -67 19
-68 19 -79 -1z"/>
<path d="M8531 11298 c-24 -67 -23 -74 19 -91 l40 -16 25 37 c33 49 32 60 -10
78 -48 20 -64 18 -74 -8z"/>
<path d="M2943 11298 l-22 -11 24 -46 c40 -77 37 -74 80 -57 27 12 35 19 28
29 -79 105 -75 102 -110 85z"/>
<path d="M7007 11270 c-4 -16 -4 -43 -1 -58 5 -27 10 -29 122 -51 65 -13 207
-46 316 -73 109 -27 202 -45 206 -41 12 12 29 103 20 108 -29 18 -588 145
-639 145 -13 0 -20 -10 -24 -30z"/>
<path d="M4405 11255 c-170 -35 -324 -72 -442 -107 l-71 -20 -7 -50 c-4 -27
-5 -51 -4 -53 2 -2 56 12 119 31 98 29 312 78 543 124 50 10 57 14 57 35 0 29
-17 75 -27 74 -5 0 -80 -15 -168 -34z"/>
<path d="M3830 11261 c0 -10 7 -24 15 -31 13 -11 15 -8 15 19 0 21 -5 31 -15
31 -8 0 -15 -8 -15 -19z"/>
<path d="M2746 11215 c-65 -29 -120 -55 -122 -58 -5 -5 56 -117 64 -117 13 0
262 113 262 119 -1 19 -57 106 -70 108 -8 1 -68 -22 -134 -52z"/>
<path d="M3670 11233 c-63 -19 -121 -40 -128 -47 -11 -11 -9 -21 9 -59 28 -58
37 -58 174 -14 67 22 101 38 103 49 2 9 -7 37 -20 61 l-23 45 -115 -35z"/>
<path d="M8656 11230 c-14 -22 -26 -42 -26 -45 0 -8 147 -79 256 -125 l98 -41
18 23 c16 22 32 67 26 73 -5 4 -337 155 -341 155 -3 0 -16 -18 -31 -40z"/>
<path d="M5400 11251 c-36 -3 -70 -9 -77 -14 -13 -8 -45 -98 -38 -106 3 -2 99
1 213 7 114 7 309 12 434 12 l228 0 6 24 c11 45 1 70 -31 77 -38 8 -647 8
-735 0z"/>
<path d="M6213 11244 c-14 -6 -18 -90 -5 -98 4 -2 47 -8 95 -12 l87 -7 0 27
c0 15 -7 40 -15 56 -13 25 -21 30 -54 30 -21 0 -51 2 -67 5 -16 2 -35 2 -41
-1z"/>
<path d="M7857 11225 c-2 -14 -1 -40 2 -58 6 -31 11 -33 131 -75 93 -32 126
-39 131 -30 14 23 21 90 11 100 -12 12 -230 88 -253 88 -10 0 -19 -10 -22 -25z"/>
<path d="M5150 11231 c-23 -7 -25 -12 -24 -60 1 -29 4 -55 7 -58 3 -3 28 -2
56 2 46 6 51 9 65 46 28 68 23 79 -31 78 -27 -1 -59 -4 -73 -8z"/>
<path d="M3181 11212 c-24 -9 -46 -22 -48 -28 -2 -6 8 -26 22 -43 30 -35 67
-41 103 -15 20 14 21 17 8 42 -32 60 -36 62 -85 44z"/>
<path d="M6415 11203 c16 -66 27 -78 78 -81 l47 -3 0 49 c0 47 -1 50 -31 56
-17 3 -47 6 -66 6 -33 0 -35 -1 -28 -27z"/>
<path d="M8361 11199 c-22 -64 -16 -78 44 -105 31 -13 62 -24 70 -24 13 0 85
76 85 91 0 9 -149 69 -172 69 -9 0 -21 -13 -27 -31z"/>
<path d="M4975 11213 c-37 -9 -38 -21 -5 -72 32 -51 32 -51 74 -44 22 3 44 11
48 16 6 9 1 65 -8 95 -3 12 -67 15 -109 5z"/>
<path d="M6582 11163 l3 -48 49 -9 c47 -10 50 -9 77 22 16 18 29 39 29 46 0
15 -77 36 -131 36 -30 0 -30 -1 -27 -47z"/>
<path d="M4810 11191 c-23 -7 -25 -11 -22 -66 1 -32 4 -60 5 -61 4 -4 142 18
153 24 9 5 3 22 -19 60 -34 55 -52 62 -117 43z"/>
<path d="M4690 11173 c-236 -40 -638 -130 -681 -154 -17 -9 -17 -12 3 -70 16
-48 24 -59 37 -54 39 15 380 96 531 126 91 17 167 34 170 36 6 5 2 79 -5 104
-6 19 -9 20 -55 12z"/>
<path d="M6779 11164 c-21 -24 -42 -64 -37 -70 3 -2 76 -15 164 -28 221 -34
494 -99 806 -192 13 -4 19 4 27 33 6 21 11 43 11 50 0 24 -313 108 -660 177
-242 48 -291 53 -311 30z"/>
<path d="M2910 11101 c-216 -94 -203 -85 -197 -134 6 -47 350 -695 373 -704
14 -5 296 109 321 129 10 8 8 19 -9 49 -12 22 -27 39 -34 39 -7 0 -42 -13 -79
-30 -70 -31 -95 -37 -95 -20 0 13 12 19 242 116 112 47 206 89 211 93 4 4 -10
21 -31 38 l-39 32 -227 -91 c-125 -50 -230 -88 -233 -84 -12 11 18 33 76 56
99 40 100 41 68 105 -15 30 -32 55 -38 55 -6 0 -49 -16 -95 -36 -60 -26 -88
-34 -96 -26 -13 13 18 29 210 107 81 33 142 63 142 71 0 7 -16 25 -35 39 -40
31 -32 33 -209 -41 -71 -30 -137 -54 -147 -54 -38 0 -17 18 56 50 41 18 75 35
75 37 0 6 -42 87 -52 100 -6 8 -30 2 -88 -24 -49 -22 -85 -33 -96 -29 -24 9
-20 12 139 82 70 31 127 60 127 65 0 14 -61 79 -74 78 -6 0 -81 -31 -166 -68z"/>
<path d="M3348 11123 l-127 -46 37 -43 c20 -23 45 -45 55 -49 28 -10 227 63
227 83 0 18 -48 102 -58 102 -4 -1 -64 -22 -134 -47z"/>
<path d="M8565 11108 c-19 -23 -35 -47 -35 -53 0 -6 35 -28 77 -48 l78 -37 27
53 c15 28 27 55 28 59 0 9 -23 22 -88 47 l-51 20 -36 -41z"/>
<path d="M7706 11132 c-3 -5 -8 -30 -11 -58 l-7 -49 68 -22 c79 -26 88 -21 78
46 -8 63 -10 66 -59 79 -53 14 -62 15 -69 4z"/>
<path d="M8170 11114 c-22 -58 -15 -73 53 -104 34 -15 85 -35 113 -43 l52 -15
32 39 c18 22 30 42 29 43 -22 20 -234 106 -260 106 -5 0 -14 -12 -19 -26z"/>
<path d="M5657 11111 c-42 -3 -77 -9 -77 -13 0 -5 0 -25 0 -47 l0 -38 278 -7
c152 -3 316 -9 365 -12 l87 -7 0 56 c0 48 -3 55 -22 61 -33 9 -539 15 -631 7z"/>
<path d="M3783 11098 c-37 -12 -40 -25 -17 -73 14 -31 18 -33 42 -24 34 13 42
26 42 72 0 41 -8 44 -67 25z"/>
<path d="M5435 11104 c-11 -2 -55 -6 -97 -9 l-77 -7 -17 -44 c-9 -24 -15 -46
-13 -47 9 -7 304 15 312 22 5 5 5 24 2 44 -8 43 -34 53 -110 41z"/>
<path d="M6344 11086 c-3 -7 -4 -33 -2 -57 3 -44 3 -44 50 -53 27 -5 51 -6 54
-3 10 9 -16 96 -33 113 -18 18 -62 18 -69 0z"/>
<path d="M6471 11080 c-11 -6 -10 -17 4 -56 23 -61 22 -60 68 -67 35 -5 39 -3
72 40 19 25 35 52 35 59 0 8 -21 15 -57 19 -32 3 -69 8 -83 10 -14 2 -32 0
-39 -5z"/>
<path d="M7866 11072 c-10 -31 8 -107 27 -110 33 -7 54 109 21 122 -27 10 -42
7 -48 -12z"/>
<path d="M5081 11069 c-24 -5 -46 -11 -49 -13 -2 -3 4 -20 15 -38 16 -29 25
-33 64 -36 55 -4 86 18 95 66 l7 32 -44 -1 c-24 -1 -64 -5 -88 -10z"/>
<path d="M3580 11031 c-133 -44 -220 -80 -220 -92 0 -4 16 -21 36 -37 l36 -30
151 53 c83 29 153 57 155 63 4 14 -25 82 -35 82 -4 0 -60 -18 -123 -39z"/>
<path d="M8747 11016 c-14 -30 -23 -64 -20 -75 3 -12 1 -21 -5 -21 -5 0 -58
23 -116 51 l-108 51 -30 -28 c-47 -45 -53 -63 -26 -73 13 -5 71 -32 130 -60
82 -38 106 -54 102 -65 -5 -14 -9 -14 -34 -1 -39 20 -39 20 -56 -20 -20 -49
-18 -82 6 -90 22 -7 28 -35 6 -35 -7 0 -53 18 -101 41 -48 22 -90 37 -95 32
-9 -11 -42 -95 -38 -99 2 -1 43 -21 91 -43 68 -31 85 -44 81 -56 -4 -10 -13
-14 -23 -10 -9 4 -21 9 -27 11 -6 3 -19 -14 -29 -37 l-19 -41 25 -18 c18 -15
21 -22 12 -31 -9 -9 -31 -4 -97 25 -46 20 -89 36 -95 36 -11 0 -19 -17 -35
-66 -6 -18 0 -24 36 -39 24 -9 96 -42 161 -73 98 -46 120 -53 128 -41 23 36
387 708 392 725 5 16 -9 26 -87 62 -51 23 -95 42 -98 42 -4 0 -18 -25 -31 -54z"/>
<path d="M3143 11044 c-44 -19 -47 -28 -24 -71 36 -68 32 -66 94 -42 31 12 57
27 57 33 0 11 -80 97 -90 95 -3 0 -19 -7 -37 -15z"/>
<path d="M6668 11012 c-21 -27 -38 -53 -38 -58 0 -7 272 -56 301 -54 11 0 21
70 14 100 -6 26 -12 29 -68 39 -34 6 -87 13 -117 17 l-55 6 -37 -50z"/>
<path d="M4825 11034 c-288 -44 -937 -203 -972 -237 -8 -9 -16 -87 -8 -87 4 0
73 20 154 45 297 90 572 152 876 196 83 12 152 23 154 25 2 2 -7 19 -19 38
-25 42 -37 43 -185 20z"/>
<path d="M7967 11044 c-3 -5 -8 -30 -12 -55 l-7 -46 84 -31 c45 -16 100 -34
121 -40 38 -11 39 -10 53 25 26 62 18 74 -75 112 -89 35 -155 49 -164 35z"/>
<path d="M3913 10998 c-17 -6 -35 -17 -38 -26 -8 -21 -19 -132 -13 -132 7 0
65 19 101 32 26 10 28 14 22 47 -6 31 -32 93 -38 90 -1 -1 -16 -6 -34 -11z"/>
<path d="M6982 10949 l3 -62 205 -47 c113 -27 239 -58 280 -69 41 -12 77 -18
81 -13 4 4 12 30 17 57 8 37 8 53 -1 62 -23 22 -483 133 -555 133 l-33 0 3
-61z"/>
<path d="M5453 10972 c-45 -4 -83 -9 -85 -12 -3 -3 -3 -26 0 -51 l4 -46 381 4
c210 2 388 6 395 8 16 6 15 70 -2 84 -16 13 -561 23 -693 13z"/>
<path d="M3738 10945 c-37 -13 -72 -26 -78 -30 -7 -4 1 -28 21 -65 l31 -58 50
16 c56 18 64 31 69 107 5 61 -1 63 -93 30z"/>
<path d="M5265 10965 c-5 -2 -22 -6 -36 -9 -20 -4 -32 -18 -48 -55 -11 -27
-21 -54 -21 -60 0 -12 120 -4 159 11 22 8 23 12 17 55 -7 56 -28 73 -71 58z"/>
<path d="M6194 10947 c-3 -8 -4 -30 -2 -48 3 -32 6 -34 48 -40 25 -4 93 -10
153 -14 120 -8 123 -6 91 60 -15 32 -17 33 -97 39 -45 4 -106 9 -134 12 -42 5
-54 3 -59 -9z"/>
<path d="M5113 10942 c-10 -6 -9 -13 4 -31 15 -23 17 -23 30 -6 7 11 13 25 13
32 0 14 -28 17 -47 5z"/>
<path d="M7774 10910 c-4 -22 -6 -43 -5 -47 2 -10 73 -35 80 -28 9 9 0 89 -11
103 -6 6 -21 12 -34 12 -20 0 -25 -6 -30 -40z"/>
<path d="M8251 10928 c-35 -93 -14 -119 49 -62 47 42 49 56 15 72 -38 18 -54
15 -64 -10z"/>
<path d="M4965 10933 c-93 -12 -136 -25 -131 -40 3 -8 6 -29 6 -46 0 -58 4
-59 137 -41 66 9 127 20 134 24 9 6 4 21 -20 59 -35 54 -39 55 -126 44z"/>
<path d="M6520 10909 c0 -5 5 -7 10 -4 6 3 10 8 10 11 0 2 -4 4 -10 4 -5 0
-10 -5 -10 -11z"/>
<path d="M7881 10898 c0 -13 5 -38 12 -57 10 -29 20 -37 63 -52 l52 -17 11 24
c6 14 11 38 11 54 0 26 -6 31 -55 49 -74 28 -95 27 -94 -1z"/>
<path d="M4760 10902 c-168 -23 -663 -141 -684 -162 -12 -12 13 -100 30 -107
7 -3 98 16 201 41 103 25 259 60 347 77 l158 33 -4 53 c-5 61 -12 71 -48 65z"/>
<path d="M6562 10880 c-12 -16 -22 -33 -22 -39 0 -10 157 -35 187 -29 14 2 18
12 18 43 0 36 -3 40 -30 46 -16 4 -53 7 -81 8 -45 1 -53 -2 -72 -29z"/>
<path d="M3565 10886 c-22 -8 -53 -19 -69 -25 l-29 -12 34 -35 c19 -20 47 -42
62 -50 25 -14 33 -13 73 2 l44 17 -32 58 c-17 33 -34 59 -37 58 -3 0 -24 -6
-46 -13z"/>
<path d="M8340 10855 c-39 -40 -42 -45 -24 -51 10 -4 59 -25 108 -46 49 -21
93 -38 97 -38 8 0 39 74 39 96 0 15 -133 84 -162 84 -8 0 -34 -20 -58 -45z"/>
<path d="M6792 10882 c-7 -2 -12 -20 -12 -43 0 -44 -15 -38 164 -69 182 -32
632 -144 738 -185 13 -5 19 2 27 31 6 20 8 40 6 44 -3 4 -42 18 -87 30 -46 12
-136 37 -201 56 -190 56 -607 146 -635 136z"/>
<path d="M7609 10842 c-6 -15 -11 -45 -12 -66 l-2 -40 135 -42 c74 -24 142
-43 152 -43 15 -1 15 4 2 62 -8 34 -20 67 -27 73 -7 7 -50 24 -97 39 -47 14
-98 31 -113 35 -25 8 -29 6 -38 -18z"/>
<path d="M8067 10843 c-3 -5 -8 -26 -11 -48 -7 -40 -7 -40 38 -58 49 -20 64
-16 105 27 30 32 19 48 -46 70 -51 17 -79 20 -86 9z"/>
<path d="M5510 10829 c-718 -45 -1452 -214 -2140 -492 -282 -114 -376 -160
-383 -188 -8 -31 17 -69 46 -70 42 -2 59 3 163 51 582 272 1325 483 1954 554
326 37 790 48 1081 26 750 -58 1513 -266 2178 -594 144 -71 194 -82 224 -48
45 50 0 89 -220 192 -672 313 -1330 492 -2038 555 -211 19 -672 27 -865 14z"/>
<path d="M3333 10799 c-40 -17 -73 -34 -73 -37 0 -13 60 -112 68 -111 24 1
197 76 197 85 0 14 -93 94 -108 94 -7 0 -45 -14 -84 -31z"/>
<path d="M8241 10763 c-17 -13 -36 -33 -42 -44 -9 -18 -4 -22 46 -44 30 -14
62 -25 71 -25 13 0 60 87 52 96 -2 1 -24 12 -49 22 l-46 20 -32 -25z"/>
<path d="M3735 10766 c-53 -17 -105 -44 -105 -56 0 -11 54 -50 71 -50 7 0 32
7 55 16 33 13 43 22 48 46 13 64 6 68 -69 44z"/>
<path d="M7914 10727 c13 -86 23 -103 68 -116 41 -13 41 -13 84 30 24 24 44
46 44 50 0 6 -114 53 -169 69 l-33 9 6 -42z"/>
<path d="M3935 10704 c-44 -14 -87 -33 -97 -42 -22 -23 -35 -122 -16 -122 8 0
65 16 126 35 99 32 112 38 111 58 -1 30 -23 90 -35 93 -5 2 -45 -8 -89 -22z"/>
<path d="M5545 10681 c-29 -6 -30 -9 -30 -58 1 -29 4 -55 7 -59 4 -3 70 -3
147 1 l141 7 0 59 0 59 -117 -1 c-65 -1 -131 -4 -148 -8z"/>
<path d="M5855 10676 c-3 -9 -7 -23 -10 -31 -2 -8 0 -28 6 -44 l10 -29 116 -4
c64 -1 138 -1 164 0 l49 4 0 48 c0 36 -4 50 -17 55 -10 4 -84 10 -165 13 -131
4 -148 3 -153 -12z"/>
<path d="M5310 10670 c-101 -10 -120 -17 -120 -43 0 -30 19 -97 28 -97 32 1
213 21 235 26 25 5 27 9 27 59 0 51 -1 53 -31 59 -17 3 -39 5 -48 5 -9 -1 -50
-5 -91 -9z"/>
<path d="M6231 10666 c-8 -10 -10 -29 -6 -60 8 -51 4 -49 159 -62 61 -5 80 -4
87 7 13 21 11 85 -3 96 -7 6 -42 13 -78 17 -36 4 -83 9 -106 12 -29 4 -44 1
-53 -10z"/>
<path d="M8105 10630 c-23 -24 -35 -43 -30 -48 12 -10 301 -122 315 -122 11 0
35 36 44 66 5 18 -3 26 -51 52 -65 34 -207 92 -226 92 -7 0 -31 -18 -52 -40z"/>
<path d="M3758 10643 c-23 -6 -23 -16 1 -37 18 -17 20 -16 26 4 8 26 -3 38
-27 33z"/>
<path d="M5035 10640 c-22 -4 -65 -11 -96 -14 -81 -10 -89 -19 -79 -85 5 -29
11 -55 12 -56 4 -4 252 32 277 40 24 7 26 30 10 88 -9 35 -12 37 -47 36 -20
-1 -55 -5 -77 -9z"/>
<path d="M6516 10634 c-3 -9 -6 -35 -6 -58 l0 -43 126 -17 c69 -10 128 -15
131 -13 12 13 23 91 14 100 -8 8 -208 46 -247 47 -7 0 -15 -7 -18 -16z"/>
<path d="M7750 10630 c-22 -41 -9 -62 52 -87 31 -12 75 -25 97 -29 l40 -6 -10
38 c-14 50 -23 58 -89 79 -30 10 -60 20 -67 22 -6 3 -17 -5 -23 -17z"/>
<path d="M3542 10561 c-62 -26 -117 -52 -123 -58 -11 -11 24 -93 40 -93 14 0
314 109 322 117 12 12 -80 83 -105 82 -11 -1 -72 -23 -134 -48z"/>
<path d="M4770 10594 c-70 -11 -149 -27 -183 -37 -38 -11 -39 -11 -33 -50 11
-69 22 -79 69 -72 58 8 136 25 175 37 28 8 32 14 32 43 0 38 -16 86 -27 84 -5
-1 -19 -3 -33 -5z"/>
<path d="M6816 10568 c-3 -13 -6 -35 -6 -49 0 -25 4 -27 105 -49 135 -28 218
-40 227 -31 4 3 10 25 14 47 6 41 5 42 -27 53 -60 19 -223 51 -265 51 -35 0
-43 -4 -48 -22z"/>
<path d="M7960 10570 c0 -5 5 -10 10 -10 6 0 10 5 10 10 0 6 -4 10 -10 10 -5
0 -10 -4 -10 -10z"/>
<path d="M7991 10526 c-18 -18 -29 -36 -24 -39 16 -10 209 -85 227 -89 14 -2
22 7 32 36 17 47 20 44 -86 85 -118 45 -112 45 -149 7z"/>
<path d="M4338 10501 c-82 -21 -151 -41 -155 -44 -11 -12 27 -117 42 -117 24
0 299 71 309 80 11 11 -22 120 -37 120 -7 -1 -78 -18 -159 -39z"/>
<path d="M5703 10530 c-18 -7 -23 -17 -23 -44 0 -19 4 -46 10 -60 l10 -26 149
0 149 0 6 25 c6 23 3 47 -11 98 -4 15 -19 17 -136 16 -73 0 -142 -4 -154 -9z"/>
<path d="M5475 10524 c-16 -3 -45 -7 -64 -10 l-33 -5 4 -50 c3 -28 10 -55 15
-60 7 -7 51 -8 129 -2 l119 8 0 60 0 60 -70 1 c-38 1 -83 0 -100 -2z"/>
<path d="M6034 10504 c-4 -14 -3 -44 2 -67 l9 -42 75 -8 c41 -4 102 -6 135 -5
l60 3 3 66 3 66 -47 7 c-26 3 -89 6 -140 6 -92 0 -94 0 -100 -26z"/>
<path d="M7195 10510 c-3 -5 -8 -28 -11 -52 l-6 -43 144 -38 c78 -21 150 -38
158 -37 15 0 40 50 40 77 0 26 -312 115 -325 93z"/>
<path d="M5170 10493 c-63 -8 -118 -18 -123 -22 -7 -7 6 -97 16 -107 7 -7 279
24 287 33 4 4 5 31 1 58 -6 47 -8 50 -36 52 -16 0 -82 -5 -145 -14z"/>
<path d="M6357 10503 c-4 -3 -7 -34 -7 -69 l0 -62 68 -11 c37 -6 94 -12 127
-14 l60 -2 0 70 0 70 -65 12 c-71 13 -173 17 -183 6z"/>
<path d="M6647 10474 c-11 -11 -8 -132 3 -139 15 -9 206 -45 240 -45 34 0 43
22 44 100 l1 44 -89 17 c-123 24 -190 31 -199 23z"/>
<path d="M4883 10450 c-144 -25 -153 -28 -153 -49 0 -35 22 -81 38 -81 29 1
155 20 205 31 42 10 47 14 47 39 0 34 -16 80 -27 79 -5 0 -54 -9 -110 -19z"/>
<path d="M4095 10435 c-5 -2 -62 -20 -125 -39 -155 -48 -149 -44 -120 -106 24
-51 25 -51 60 -45 19 4 87 23 150 44 127 41 127 41 95 119 -13 30 -30 38 -60
27z"/>
<path d="M6976 10412 c-3 -5 -8 -38 -12 -74 l-6 -65 153 -37 c114 -27 155 -33
160 -24 12 19 29 132 21 139 -9 8 -266 69 -292 69 -10 0 -21 -4 -24 -8z"/>
<path d="M4575 10390 c-139 -31 -165 -40 -165 -56 0 -21 27 -84 37 -84 37 0
256 57 260 68 3 7 0 31 -6 53 -14 45 -13 45 -126 19z"/>
<path d="M7540 10370 c-8 -25 -10 -44 -4 -49 5 -5 58 -25 119 -45 120 -39 123
-39 143 22 10 30 9 33 -16 46 -45 23 -179 66 -205 66 -19 0 -26 -8 -37 -40z"/>
<path d="M5565 10361 c-25 -5 -31 -11 -33 -40 -2 -19 -1 -44 2 -57 6 -24 8
-24 136 -24 121 0 130 1 140 21 18 32 3 96 -23 103 -28 7 -183 6 -222 -3z"/>
<path d="M5873 10362 c-27 -4 -36 -33 -25 -82 7 -34 10 -35 62 -42 30 -3 101
-6 158 -7 l102 -1 0 55 c0 48 -3 57 -22 64 -25 9 -238 19 -275 13z"/>
<path d="M5320 10354 c-14 -3 -40 -7 -57 -10 -28 -4 -33 -9 -33 -32 0 -15 5
-43 10 -63 l10 -36 73 4 c39 3 95 8 122 12 l50 6 0 60 0 60 -75 1 c-41 1 -86
0 -100 -2z"/>
<path d="M5058 10329 c-43 -5 -94 -15 -115 -22 -40 -13 -41 -16 -28 -94 5 -29
10 -33 38 -33 47 1 173 18 219 30 l40 11 -7 42 c-13 87 -3 82 -147 66z"/>
<path d="M6200 10287 l0 -55 50 -11 c28 -6 80 -11 115 -11 l65 0 0 54 c0 65
-1 66 -132 73 l-98 6 0 -56z"/>
<path d="M3620 10274 c-80 -31 -151 -62 -158 -69 -11 -10 -10 -19 7 -53 11
-22 25 -43 30 -46 19 -12 341 109 341 128 0 21 -45 91 -60 93 -8 2 -80 -22
-160 -53z"/>
<path d="M4194 10296 c-60 -18 -115 -36 -122 -40 -16 -10 -15 -41 4 -77 11
-22 20 -28 34 -24 11 3 77 22 147 41 70 19 132 39 137 44 5 5 3 24 -5 47 -13
33 -19 38 -49 40 -19 1 -85 -13 -146 -31z"/>
<path d="M7320 10277 c-20 -87 -19 -87 110 -124 63 -18 120 -31 127 -29 14 6
47 111 40 130 -5 14 -202 76 -240 76 -23 0 -27 -6 -37 -53z"/>
<path d="M7830 10295 c-28 -73 -33 -67 107 -124 71 -28 136 -51 145 -51 9 0
21 12 26 28 5 15 13 34 16 43 5 12 -9 23 -66 49 -61 27 -203 80 -215 80 -2 0
-8 -11 -13 -25z"/>
<path d="M6466 10284 c-11 -41 2 -83 27 -89 48 -10 168 -25 201 -25 36 0 40 7
49 90 2 18 -127 48 -214 49 -53 1 -57 -1 -63 -25z"/>
<path d="M4830 10293 c-82 -10 -201 -37 -209 -47 -8 -11 9 -99 22 -112 6 -6
105 8 191 27 l48 12 -4 54 c-5 61 -12 70 -48 66z"/>
<path d="M6786 10255 c-10 -10 -16 -33 -16 -59 l0 -42 141 -28 c157 -30 153
-31 165 38 4 26 2 41 -6 46 -7 5 -61 18 -119 30 -58 12 -115 24 -127 27 -12 2
-28 -3 -38 -12z"/>
<path d="M3866 10190 c-82 -27 -154 -54 -160 -60 -7 -7 -3 -23 14 -55 14 -25
28 -45 31 -45 11 0 259 89 280 101 21 11 20 21 -5 81 l-11 27 -149 -49z"/>
<path d="M4420 10210 c-152 -40 -163 -46 -154 -72 16 -53 35 -88 47 -88 6 1
73 15 147 33 129 31 135 34 138 59 2 14 -4 42 -12 62 -18 44 -23 44 -166 6z"/>
<path d="M7624 10205 c-7 -19 -14 -50 -14 -69 0 -33 3 -36 53 -54 71 -27 186
-62 202 -62 13 0 45 79 45 111 0 12 -21 25 -67 44 -67 27 -180 65 -196 65 -4
0 -15 -16 -23 -35z"/>
<path d="M5580 10203 c-751 -28 -1455 -198 -2162 -523 -146 -67 -177 -88 -162
-111 3 -5 83 -9 178 -9 l173 0 154 74 c362 174 785 288 1319 355 242 30 424
41 710 41 281 0 451 -10 700 -41 521 -65 971 -189 1403 -388 l89 -41 175 0
174 0 -3 23 c-9 66 -693 337 -1123 446 -521 131 -1106 194 -1625 174z"/>
<path d="M7110 10175 c-5 -14 -10 -39 -10 -55 0 -26 5 -30 53 -44 125 -36 230
-57 239 -48 11 11 24 102 14 102 -3 0 -54 13 -113 29 -175 47 -171 47 -183 16z"/>
<path d="M8145 10154 c-8 -20 -15 -42 -15 -49 0 -11 249 -135 271 -135 11 0
49 60 49 78 0 12 -214 121 -267 137 -19 5 -25 0 -38 -31z"/>
<path d="M3306 10145 c-108 -47 -111 -50 -85 -103 12 -24 28 -42 38 -42 39 0
201 74 201 92 0 24 -42 88 -58 88 -9 0 -53 -16 -96 -35z"/>
<path d="M4076 10106 c-72 -24 -132 -48 -134 -54 -7 -21 38 -92 58 -92 23 0
227 65 249 79 11 7 11 17 -4 60 -9 28 -22 51 -28 50 -7 0 -70 -20 -141 -43z"/>
<path d="M7941 10107 c-17 -45 -34 -107 -30 -110 10 -9 265 -107 276 -107 15
0 48 109 37 120 -10 10 -180 85 -237 106 -36 13 -38 12 -46 -9z"/>
<path d="M3584 10092 c-23 -10 -47 -22 -55 -28 -8 -7 -30 -15 -48 -19 -38 -8
-191 -71 -204 -84 -9 -9 35 -105 52 -115 7 -5 365 155 379 169 2 2 -7 23 -20
47 -27 49 -44 54 -104 30z"/>
<path d="M7441 10073 c-20 -69 -19 -70 88 -103 54 -16 106 -30 115 -30 19 0
38 43 34 79 -3 21 -14 28 -85 52 -139 46 -140 47 -152 2z"/>
<path d="M3790 10006 c-103 -39 -193 -84 -188 -94 28 -57 43 -82 49 -82 12 0
283 102 291 109 11 10 -34 96 -52 98 -8 1 -53 -12 -100 -31z"/>
<path d="M7714 9988 c-29 -56 -19 -69 87 -110 53 -20 112 -40 131 -43 33 -6
36 -5 47 26 20 59 17 65 -67 98 -44 18 -102 38 -131 46 l-51 13 -16 -30z"/>
<path d="M8252 9953 c-25 -63 -25 -81 0 -97 13 -9 37 -18 54 -21 27 -5 31 -2
56 44 l27 50 -33 20 c-18 12 -47 24 -63 27 -26 5 -31 2 -41 -23z"/>
<path d="M5740 9933 c0 -3 7 -14 16 -24 14 -16 14 -18 -3 -23 -10 -3 -72 -10
-138 -16 -158 -14 -287 -31 -303 -40 -8 -4 44 -10 115 -14 70 -3 185 -13 256
-22 116 -15 137 -15 240 0 61 8 197 25 301 36 176 19 206 24 195 34 -2 2 -125
9 -274 15 -148 7 -275 14 -282 16 -6 2 -9 13 -6 24 5 20 1 21 -56 21 -33 0
-61 -3 -61 -7z"/>
<path d="M3452 9860 c-56 -27 -102 -52 -102 -55 0 -12 43 -85 50 -85 11 0 194
81 203 90 8 7 -25 84 -40 93 -5 3 -54 -17 -111 -43z"/>
<path d="M8011 9860 c-7 -22 -9 -45 -5 -51 7 -11 116 -64 205 -99 l47 -19 26
48 26 48 -48 26 c-62 33 -198 87 -221 87 -12 0 -22 -12 -30 -40z"/>
<path d="M5500 9744 c-262 -27 -230 -22 -230 -33 0 -11 431 -36 625 -35 156 1
520 29 560 44 12 5 -23 10 -90 15 -60 3 -204 13 -320 21 -259 17 -268 17 -545
-12z"/>
<path d="M5400 9624 c-197 -18 -219 -27 -95 -35 272 -18 1094 -4 1117 19 12
12 -459 33 -687 31 -104 -1 -255 -8 -335 -15z"/>
<path d="M226 9569 c-40 -11 -94 -66 -106 -107 -18 -66 31 -131 114 -153 87
-22 104 -31 186 -100 103 -86 269 -198 360 -244 75 -38 80 -46 80 -137 0 -89
-8 -100 -92 -133 -40 -15 -127 -53 -193 -83 -155 -70 -293 -122 -326 -122 -14
0 -41 7 -59 16 -18 9 -50 17 -72 18 -35 1 -44 -4 -79 -44 -22 -26 -39 -56 -39
-70 0 -31 67 -106 103 -115 26 -7 80 14 167 65 32 19 52 20 300 20 194 0 269
-3 278 -12 9 -9 12 -86 12 -285 l0 -272 -32 -6 c-18 -2 -53 -6 -78 -7 l-45 -3
-3 -92 -3 -92 33 -5 c18 -3 53 -7 78 -8 l45 -3 3 -82 3 -82 -130 -105 c-216
-177 -269 -273 -258 -470 3 -55 15 -143 26 -194 27 -117 30 -211 12 -382 -21
-211 2 -284 124 -398 64 -60 207 -164 239 -175 7 -2 13 -115 17 -343 4 -186
10 -369 14 -406 8 -78 12 -76 -115 -80 l-75 -3 0 -85 0 -85 50 -3 c28 -2 54
-7 58 -11 5 -5 -12 -26 -37 -47 -25 -21 -46 -42 -46 -48 0 -5 -16 -24 -35 -43
-63 -61 -80 -106 -80 -208 1 -96 6 -114 91 -320 35 -85 38 -99 45 -240 13
-239 62 -397 164 -528 65 -82 144 -141 275 -203 63 -30 121 -58 128 -62 7 -4
31 -48 52 -98 47 -113 86 -184 212 -386 54 -87 98 -161 98 -164 0 -4 -16 -24
-35 -45 -58 -65 -88 -134 -93 -220 -5 -92 13 -163 68 -267 54 -100 68 -145 90
-296 23 -156 36 -206 66 -266 38 -76 111 -131 209 -159 99 -28 534 -79 897
-106 l198 -14 52 -39 c75 -54 213 -138 351 -212 64 -35 117 -69 117 -75 0 -7
-9 -34 -21 -60 -20 -45 -20 -47 -2 -61 21 -17 137 -74 149 -74 5 0 22 25 39
55 16 30 32 55 36 55 3 0 77 -27 164 -60 452 -173 888 -269 1399 -309 176 -14
252 -24 257 -33 5 -7 9 -43 9 -80 l0 -68 131 0 132 0 -6 36 c-4 21 -4 57 0 80
l6 44 62 0 c78 0 277 15 460 35 482 53 956 178 1364 359 114 51 117 51 146
-14 10 -22 24 -40 31 -40 17 0 184 77 184 85 0 3 -13 32 -29 64 l-30 58 112
73 c96 63 118 73 153 72 22 -1 177 -20 343 -42 252 -33 331 -40 471 -40 93 0
193 5 222 11 123 26 207 90 228 171 31 126 96 342 121 403 16 39 56 106 89
150 113 151 168 295 157 413 -7 72 -29 127 -85 209 -21 32 -46 72 -55 89 l-16
32 93 138 c110 164 226 360 316 536 l65 126 60 17 c83 23 191 81 224 122 39
47 56 112 86 321 14 101 33 204 41 230 9 26 50 117 92 202 109 223 110 211
-12 476 -54 115 -98 218 -99 229 -2 18 5 20 58 23 74 3 85 16 85 96 0 102 -2
105 -79 108 l-66 3 1 38 c0 20 1 215 2 432 l2 394 70 41 c96 56 183 139 216
206 l27 55 -23 76 c-32 107 -24 216 29 433 53 213 59 281 32 384 -44 167 -148
368 -268 519 -40 50 -73 95 -73 99 0 4 31 8 69 8 79 0 81 2 81 100 0 99 -2
100 -86 100 l-73 0 -6 33 c-8 40 -2 413 6 421 3 4 73 18 155 31 165 28 243 48
354 93 50 20 86 28 107 25 83 -13 153 28 153 88 0 40 -40 111 -72 126 -70 34
-115 17 -155 -56 -23 -41 -34 -52 -61 -57 -43 -8 -142 16 -317 78 -77 27 -148
52 -157 55 -16 5 -18 21 -18 143 l0 137 163 136 c90 75 187 150 216 168 49 31
57 33 151 33 89 1 101 3 124 25 51 48 42 126 -20 181 -63 55 -145 33 -201 -55
-27 -43 -31 -45 -113 -64 -126 -29 -248 -51 -286 -51 l-34 0 0 79 c0 112 1
111 -85 111 -43 0 -77 -5 -81 -11 -3 -6 -7 -58 -8 -115 -2 -57 -5 -107 -9
-110 -4 -4 -90 -20 -191 -35 -205 -31 -311 -55 -433 -99 l-83 -30 0 181 c0
105 -4 188 -10 200 -9 16 -22 19 -80 19 -109 0 -100 24 -100 -264 l0 -251 -56
-40 c-139 -99 -155 -158 -112 -405 16 -95 22 -168 22 -305 1 -194 -7 -256 -55
-414 -16 -51 -29 -116 -29 -145 0 -111 51 -227 160 -362 l70 -88 0 -453 0
-454 -49 -49 c-27 -27 -62 -75 -78 -107 -26 -55 -28 -66 -28 -183 1 -99 5
-141 23 -201 31 -104 28 -162 -17 -372 -53 -244 -57 -286 -37 -387 22 -107 52
-172 113 -245 28 -34 53 -70 57 -81 16 -52 -102 -701 -135 -741 -8 -8 -42 -33
-76 -55 -139 -88 -235 -238 -293 -458 -42 -156 -109 -291 -221 -441 -103 -138
-128 -186 -135 -262 -11 -109 -14 -112 -64 -71 l-31 27 -55 -54 c-76 -75 -77
-84 -15 -138 50 -45 51 -47 36 -69 -9 -13 -74 -75 -143 -138 -134 -123 -309
-257 -507 -392 l-120 -82 -120 -15 c-207 -27 -402 -83 -551 -158 -27 -13 -119
-47 -204 -75 -257 -83 -475 -131 -765 -168 -176 -23 -691 -26 -855 -6 -486 62
-841 176 -1245 401 -147 82 -330 152 -499 193 l-140 33 -115 105 c-176 159
-366 346 -381 375 -13 24 -11 28 23 63 l36 37 -74 88 c-40 48 -76 101 -80 118
-8 36 -93 152 -202 275 -88 100 -156 195 -180 252 -8 20 -20 70 -25 111 -10
83 -32 134 -80 182 -30 30 -135 103 -159 111 -24 8 -146 550 -174 771 -18 143
-23 123 50 217 78 102 82 187 18 463 -33 145 -37 176 -37 302 -1 131 1 146 31
230 43 124 44 135 32 201 -13 68 -41 128 -98 203 l-41 55 0 553 0 554 65 74
c146 168 196 260 198 365 2 89 -21 230 -54 336 -30 98 -31 101 -23 229 5 72 8
200 8 285 0 141 -2 161 -25 225 -26 72 -73 150 -131 218 l-33 39 -5 236 -5
237 -75 3 c-128 5 -118 20 -122 -182 -2 -96 -6 -177 -10 -181 -4 -4 -55 9
-115 29 -183 61 -413 105 -545 106 -62 0 -68 13 -68 134 l0 96 -100 0 -100 0
0 -72 c0 -95 -7 -118 -34 -118 -30 0 -246 63 -333 97 -67 26 -76 32 -105 82
-49 81 -99 109 -162 90z m1136 -744 c60 19 87 19 110 -2 22 -20 24 -76 2 -97
-21 -22 -83 -20 -155 4 -34 12 -102 24 -152 28 -97 8 -115 18 -104 63 l6 25
123 -18 c111 -16 127 -17 170 -3z m9146 -137 l-3 -63 -127 -15 c-119 -14 -129
-17 -160 -46 -46 -44 -63 -47 -94 -20 -22 18 -27 32 -28 68 -2 77 43 107 108
73 44 -23 93 -17 191 25 50 20 96 38 103 39 10 1 12 -15 10 -61z m-9264 -363
c193 -39 225 -51 241 -88 46 -115 13 -283 -81 -401 l-29 -36 -151 0 c-129 0
-153 2 -158 16 -8 21 -8 519 1 527 11 12 52 8 177 -18z m9271 -259 c7 -140 -1
-282 -17 -292 -21 -13 -61 10 -125 74 -78 77 -131 169 -140 240 -5 47 -4 49
26 61 40 17 177 48 217 50 l32 1 7 -134z m-8705 -1376 c0 -313 -2 -382 -14
-386 -7 -3 -47 15 -87 39 -41 25 -155 89 -254 142 -204 111 -255 142 -255 154
0 4 83 66 186 137 102 70 235 165 297 211 62 45 115 82 120 83 4 0 7 -171 7
-380z m8185 244 c187 -117 367 -248 433 -316 l42 -44 -47 -17 c-37 -13 -503
-155 -605 -184 -17 -5 -18 15 -18 331 0 262 3 336 13 336 6 0 89 -48 182 -106z
m519 -1290 c10 -26 7 -662 -3 -669 -27 -16 -107 142 -148 293 -22 78 -27 120
-27 217 l-1 120 80 27 c95 33 91 32 99 12z m-9304 -114 c69 -35 100 -56 100
-68 0 -35 -40 -179 -69 -249 -44 -106 -134 -254 -147 -241 -3 3 -8 142 -11
307 -6 277 -5 301 11 301 9 0 61 -23 116 -50z m670 -1173 c6 -39 36 -184 67
-320 30 -137 52 -251 49 -254 -8 -9 -96 12 -306 72 -244 70 -240 68 -240 103
0 80 74 196 202 318 87 82 197 166 208 159 5 -3 13 -38 20 -78z m7922 -36 c56
-86 145 -264 154 -308 l6 -30 -89 -7 c-48 -3 -118 -9 -155 -12 -56 -5 -68 -4
-68 8 0 18 69 408 75 426 8 21 23 5 77 -77z m262 -1303 c-26 -87 -105 -243
-203 -403 -55 -90 -120 -185 -126 -185 -8 0 -109 175 -141 244 -59 129 -92
307 -59 320 8 3 83 10 167 17 84 6 189 15 233 19 141 13 137 13 129 -12z
m-8200 -99 c79 -5 165 -13 192 -17 45 -7 49 -10 46 -32 -5 -36 -55 -141 -99
-207 -47 -71 -152 -185 -164 -178 -24 16 -239 399 -239 428 0 21 54 22 264 6z
m1160 -768 l139 -139 -229 -4 c-126 -2 -235 -1 -242 2 -9 5 4 30 47 87 33 45
76 107 97 137 20 31 40 56 43 56 3 0 69 -63 145 -139z m5721 117 c2 -13 9 -99
15 -193 5 -93 13 -203 16 -242 l6 -73 -155 0 c-250 0 -487 12 -486 24 0 6 42
42 94 79 106 78 318 263 415 361 35 36 70 66 77 66 7 0 15 -10 18 -22z m-6481
-695 c27 -76 55 -157 62 -180 l13 -43 -54 0 c-45 0 -55 3 -60 20 -5 17 -15 20
-65 20 -49 0 -61 -3 -70 -20 -8 -16 -21 -20 -60 -20 -28 0 -50 4 -50 9 0 8 96
285 115 334 6 13 19 17 64 17 l56 0 49 -137z m276 -5 c0 -51 3 -109 6 -129 l6
-36 71 -7 c39 -4 73 -8 75 -10 2 -2 5 -20 6 -40 3 -33 1 -36 -28 -41 -17 -3
-78 -5 -136 -3 l-105 3 -3 165 c-1 90 0 170 2 177 4 8 24 13 56 13 l50 0 0
-92z m540 42 c0 -42 -4 -45 -70 -52 -25 -3 -25 -3 -30 -133 l-5 -130 -52 -3
-53 -3 0 104 c0 58 -3 118 -6 135 -6 29 -10 31 -53 34 -42 3 -46 5 -49 31 -7
57 -6 57 163 57 l155 0 0 -40z m253 3 c20 -5 21 7 -20 -217 l-26 -138 -44 5
c-25 2 -50 10 -55 15 -8 8 -3 56 16 164 37 205 30 190 74 182 20 -3 45 -8 55
-11z m419 -104 c91 -46 120 -156 68 -259 -60 -118 -206 -135 -308 -37 -56 54
-64 143 -22 227 47 93 156 122 262 69z m4506 -5 c20 -6 23 -12 20 -48 -3 -40
-4 -41 -43 -44 -22 -2 -43 -9 -47 -15 -4 -7 -8 -65 -8 -129 0 -115 0 -118 -24
-124 -13 -3 -37 -4 -52 -2 l-29 3 -5 130 -5 130 -45 3 c-50 4 -60 13 -60 59 0
25 5 33 23 36 35 7 250 7 275 1z m270 -23 c46 -5 86 -11 89 -14 3 -3 2 -19 -2
-36 l-7 -31 -83 0 c-46 0 -86 -4 -89 -9 -15 -24 8 -39 70 -46 72 -7 84 -20 65
-62 -11 -24 -14 -25 -72 -18 -64 8 -78 1 -79 -36 0 -13 14 -18 68 -24 96 -9
112 -15 112 -35 0 -45 -9 -50 -84 -50 -67 0 -205 16 -214 24 -9 10 29 340 40
347 7 4 32 5 57 3 26 -3 83 -9 129 -13z m-644 -17 c19 -49 11 -54 -121 -79
-27 -5 -33 -11 -33 -32 l0 -25 74 7 73 7 7 -26 c9 -35 3 -43 -37 -51 -80 -16
-94 -24 -89 -51 4 -23 8 -25 36 -20 98 17 138 19 147 5 14 -23 10 -56 -8 -64
-36 -13 -258 -53 -265 -47 -10 11 -49 209 -55 283 l-6 66 94 21 c119 26 175
28 183 6z m890 -21 c37 -6 40 -9 86 -105 27 -54 51 -95 53 -91 3 5 8 31 11 58
16 121 13 115 54 115 61 0 65 -8 58 -91 -10 -102 -26 -230 -32 -251 -6 -20
-62 -25 -92 -9 -9 5 -37 50 -62 100 -24 50 -47 91 -51 91 -4 0 -11 -30 -15
-67 -3 -38 -11 -79 -16 -92 -8 -21 -12 -23 -50 -17 -23 4 -44 9 -46 11 -5 5
16 215 29 293 6 34 16 62 23 62 6 0 28 -3 50 -7z m-4712 -33 c43 -16 95 -38
117 -50 40 -20 71 -62 71 -97 0 -27 -36 -80 -59 -88 -18 -5 -20 -12 -15 -46 6
-38 -11 -125 -27 -134 -4 -3 -26 2 -49 11 -45 18 -45 15 -24 106 5 20 1 29
-18 41 -54 35 -64 32 -88 -28 -12 -30 -25 -55 -28 -55 -20 0 -92 35 -92 44 0
15 124 326 130 326 3 0 40 -13 82 -30z m3462 -19 c28 -24 46 -66 46 -105 0
-45 -34 -85 -99 -116 -28 -13 -51 -29 -51 -35 0 -7 7 -29 15 -49 9 -20 13 -41
10 -46 -7 -12 -94 -40 -99 -32 -2 4 -32 76 -66 159 -48 118 -60 156 -51 167
10 12 152 70 196 80 31 6 78 -4 99 -23z m1833 8 c46 -22 59 -38 64 -79 4 -24
2 -25 -36 -22 -22 2 -53 12 -68 23 -32 24 -70 22 -75 -3 -3 -14 15 -26 71 -52
84 -38 107 -64 107 -118 0 -80 -88 -129 -190 -107 -77 17 -119 53 -120 103 0
28 1 28 44 24 26 -3 52 -14 65 -27 21 -21 75 -29 85 -12 13 20 -8 40 -67 66
-105 45 -133 88 -103 159 27 65 136 87 223 45z m-4823 -163 c39 -16 41 -27 52
-248 7 -134 6 -138 -13 -138 -41 0 -79 21 -89 49 -8 21 -22 31 -56 40 -40 11
-49 11 -72 -4 -23 -15 -33 -16 -66 -6 -22 6 -40 15 -40 20 0 11 106 167 162
240 51 65 65 71 122 47z m2541 -32 c29 -31 40 -76 26 -103 -16 -29 -14 -36 13
-51 26 -14 73 -111 62 -129 -4 -6 -23 -15 -43 -20 -41 -12 -58 -3 -69 32 -15
52 -49 68 -97 46 -24 -11 -24 -11 -9 -65 9 -30 13 -57 9 -60 -3 -3 -23 -12
-44 -19 -33 -12 -39 -12 -50 2 -21 27 -107 299 -100 316 8 20 178 76 235 77
34 0 48 -6 67 -26z m-350 -88 c28 -43 12 -56 -102 -86 -43 -11 -51 -22 -34
-49 9 -13 40 -10 122 15 12 3 20 -5 28 -28 6 -17 8 -35 4 -39 -5 -4 -34 -14
-65 -23 -64 -18 -73 -27 -59 -55 11 -20 2 -20 143 9 35 7 38 5 48 -23 8 -24 7
-34 -2 -43 -18 -16 -261 -75 -271 -65 -12 12 -91 331 -83 338 3 4 62 21 129
39 67 18 123 33 124 33 2 1 9 -10 18 -23z m-1615 -46 c39 -20 70 -62 70 -96 0
-14 -7 -16 -41 -11 -23 3 -51 14 -62 25 -28 25 -58 34 -76 23 -23 -15 -5 -39
51 -67 82 -41 108 -70 108 -121 0 -33 -7 -50 -28 -74 -74 -83 -282 -22 -282
82 0 17 5 29 13 29 29 0 79 -20 95 -39 23 -26 54 -34 77 -18 25 19 15 30 -60
73 -76 42 -95 65 -95 115 0 96 118 136 230 79z m1283 -11 c53 -41 56 -158 4
-191 -23 -16 -33 -19 -105 -38 l-42 -11 6 -53 c6 -50 5 -53 -17 -59 -35 -10
-77 -8 -84 3 -10 16 -60 328 -54 335 13 12 136 33 200 34 53 1 72 -3 92 -20z
m-371 -69 c7 -46 12 -300 6 -305 -9 -8 -65 -14 -75 -7 -7 4 -15 47 -19 100 -4
51 -11 89 -15 85 -5 -5 -16 -44 -25 -88 -9 -44 -21 -86 -27 -93 -6 -7 -24 -12
-41 -10 -30 3 -32 7 -62 96 -17 51 -34 96 -38 100 -5 4 -6 -38 -5 -92 l4 -100
-38 -9 c-27 -7 -42 -6 -50 2 -12 12 -28 321 -19 349 3 8 26 12 67 12 l64 0 19
-52 c11 -29 27 -77 37 -107 21 -65 26 -59 55 65 12 49 26 92 33 96 7 5 37 7
67 6 l55 -3 7 -45z m-540 14 c72 -7 83 -17 72 -61 -7 -25 -8 -25 -90 -21 -83
4 -84 4 -84 -19 0 -27 5 -29 83 -38 58 -7 58 -7 55 -38 l-3 -32 -71 -3 c-60
-2 -73 -6 -77 -21 -8 -31 5 -38 88 -47 l80 -9 3 -39 3 -39 -123 7 c-186 10
-172 -2 -164 130 4 61 9 139 13 174 l6 62 71 0 c39 0 101 -3 138 -6z m-1789
-75 c20 -5 37 -16 37 -24 0 -27 -34 -85 -49 -85 -17 0 -208 103 -225 121 -13
14 178 4 237 -12z m4342 -39 c-3 -5 -13 -10 -21 -10 -8 0 -14 5 -14 10 0 6 9
10 21 10 11 0 17 -4 14 -10z m-230 -81 c9 -16 13 -34 10 -40 -4 -5 -37 -23
-73 -40 -405 -186 -854 -312 -1309 -368 -223 -28 -512 -46 -525 -33 -12 12
-15 89 -4 99 3 4 91 12 194 20 500 34 906 126 1512 342 91 32 168 57 173 54 4
-2 14 -18 22 -34z m-3697 -55 c523 -208 1034 -324 1421 -324 109 0 111 -1 111
-66 l0 -34 -87 0 c-333 0 -856 97 -1271 236 -144 48 -379 138 -391 150 -4 4
40 104 46 104 2 0 79 -30 171 -66z"/>
<path d="M2141 1549 c-6 -18 -11 -43 -11 -55 0 -20 5 -24 30 -24 34 0 35 3 19
66 -13 52 -23 55 -38 13z"/>
<path d="M3603 1414 c-9 -15 -19 -52 -21 -84 -4 -53 -2 -59 21 -75 59 -38 116
5 125 95 6 64 -14 90 -69 90 -31 0 -42 -5 -56 -26z"/>
<path d="M4040 1295 c-14 -37 -13 -40 15 -53 33 -15 58 -15 73 0 25 25 3 55
-55 73 -19 5 -25 1 -33 -20z"/>
<path d="M7378 1309 c-22 -12 -23 -38 -4 -64 14 -19 15 -19 51 -2 30 14 36 22
33 45 -2 22 -8 27 -33 29 -16 2 -38 -2 -47 -8z"/>
<path d="M4458 1093 c-24 -28 -40 -62 -33 -73 3 -6 19 -10 36 -10 28 0 29 1
29 50 0 53 -8 61 -32 33z"/>
<path d="M6926 1128 c-25 -9 -27 -14 -22 -41 8 -41 10 -42 52 -26 46 18 63 41
45 63 -15 18 -33 19 -75 4z"/>
<path d="M6252 993 c-20 -4 -23 -10 -20 -41 3 -35 4 -37 37 -34 57 4 77 34 45
66 -16 16 -20 17 -62 9z"/>
<path d="M2430 9380 c-7 -13 -9 -758 -8 -2437 l3 -2418 23 -125 c128 -707 437
-1273 988 -1810 480 -467 1039 -792 1715 -994 601 -180 1272 -145 1933 101
133 49 406 178 531 250 123 72 309 197 425 287 127 99 353 316 469 451 399
464 660 1027 793 1715 l22 115 3 2420 c2 1331 1 2430 -2 2443 l-5 22 -3440 0
c-3410 0 -3439 0 -3450 -20z m3430 -315 c0 -28 3 -29 31 -15 17 10 19 7 19
-20 0 -27 -3 -30 -24 -24 -39 10 -38 -25 2 -63 42 -41 40 -70 -9 -101 l-36
-23 24 -59 c45 -111 53 -227 32 -431 -9 -90 -8 -104 5 -111 26 -14 18 -26 -23
-39 -29 -9 -47 -9 -75 1 -41 13 -42 16 -20 41 14 16 15 25 6 62 -37 145 -33
320 9 462 l21 72 -31 31 c-17 17 -31 37 -31 46 0 8 16 31 35 50 39 40 39 71
-1 63 -20 -3 -24 0 -24 20 0 20 4 22 25 17 22 -5 25 -3 25 20 0 19 5 26 20 26
15 0 20 -7 20 -25z m-90 -250 c0 -2 -26 -22 -58 -43 -158 -108 -223 -250 -207
-452 13 -169 27 -200 87 -200 16 0 43 7 59 16 24 12 37 13 61 5 42 -15 78 -14
110 3 24 13 33 13 69 -2 31 -12 49 -13 78 -6 27 7 47 7 72 -2 52 -19 107 -17
117 4 19 35 42 163 42 229 -1 183 -81 336 -218 415 -63 36 -56 46 21 28 126
-30 228 -112 268 -219 18 -48 20 -71 16 -166 -5 -125 -21 -179 -88 -290 -38
-63 -47 -84 -63 -157 -4 -16 -13 -28 -20 -28 -9 0 -12 -7 -9 -18 9 -37 -111
-71 -249 -72 -103 0 -178 14 -231 43 l-39 22 29 22 28 23 -47 -6 c-27 -4 -48
-4 -48 -2 0 47 -26 119 -59 162 -78 102 -111 200 -111 328 0 175 91 289 279
349 53 17 111 24 111 14z m-75 -625 c-5 -8 -11 -8 -17 -2 -6 6 -7 16 -3 22 5
8 11 8 17 2 6 -6 7 -16 3 -22z m335 0 c0 -5 -4 -10 -10 -10 -5 0 -10 5 -10 10
0 6 5 10 10 10 6 0 10 -4 10 -10z m-434 -494 c145 -45 204 -218 129 -372 -44
-90 -134 -146 -255 -159 -36 -4 -68 -12 -72 -19 -4 -6 -8 -42 -8 -80 0 -58 4
-72 25 -98 46 -54 39 -58 -105 -58 -129 0 -130 0 -130 23 0 13 11 34 25 47
l25 23 0 301 c0 282 -1 303 -20 334 -11 17 -24 32 -30 32 -12 0 -14 33 -2 44
13 15 363 -1 418 -18z m538 14 c33 -12 33 -27 -1 -63 l-28 -28 0 -310 0 -309
29 -23 c18 -15 27 -30 25 -42 -4 -18 -14 -20 -135 -23 -126 -2 -132 -2 -137
18 -4 16 3 26 29 43 l34 22 0 312 0 313 -35 22 c-49 32 -48 65 3 71 78 8 192
7 216 -3z m320 4 c54 -8 60 -26 21 -72 l-25 -30 0 -309 0 -310 25 -11 c19 -9
25 -19 25 -42 l0 -30 -130 0 c-113 0 -131 2 -137 17 -4 11 4 25 25 43 l32 26
0 317 0 316 -30 16 c-21 11 -30 23 -30 40 0 21 5 24 43 28 78 7 134 7 181 1z
m-560 -1344 c106 -790 521 -1532 1149 -2055 561 -466 1202 -735 1865 -781 59
-4 92 -10 92 -18 0 -15 -129 -241 -192 -334 -252 -375 -634 -763 -1010 -1025
-518 -361 -1071 -573 -1643 -628 -168 -16 -486 -6 -644 21 -387 65 -837 233
-1256 467 -119 67 -407 261 -514 347 -320 257 -586 536 -781 821 -81 120 -200
330 -200 354 0 14 22 21 123 40 717 137 1344 410 1812 790 546 443 911 1025
1089 1737 22 87 76 370 76 398 0 6 3 6 9 1 5 -6 16 -66 25 -135z"/>
<path d="M5406 7598 c-3 -29 -6 -98 -6 -153 0 -55 3 -124 6 -152 7 -52 8 -53
39 -53 46 0 107 48 136 107 64 130 -10 303 -131 303 l-37 0 -7 -52z"/>
<path d="M5730 4383 c-8 -3 -26 -14 -40 -23 -14 -10 -49 -21 -79 -25 -62 -8
-98 -37 -108 -85 -7 -38 -33 -53 -78 -44 -41 7 -45 -4 -11 -35 18 -17 39 -23
87 -26 35 -3 87 -8 114 -12 42 -7 50 -11 47 -28 -2 -11 -15 -30 -30 -43 l-27
-23 23 -19 24 -20 -39 -36 c-24 -23 -33 -38 -25 -41 15 -6 16 -35 0 -51 -7 -7
-31 -12 -55 -12 -35 0 -43 -3 -43 -19 0 -35 -23 -83 -43 -90 -12 -5 -43 -1
-77 10 -46 14 -64 15 -104 6 -43 -10 -50 -9 -62 8 -8 10 -14 31 -14 45 0 29
-24 56 -55 62 -17 3 -21 13 -25 79 -5 63 -11 83 -33 113 -36 46 -75 66 -129
66 -35 0 -59 -10 -122 -50 -97 -60 -150 -80 -243 -87 -74 -6 -82 -10 -62 -30
6 -6 8 -16 5 -22 -11 -17 -162 -61 -306 -88 -74 -14 -145 -27 -157 -29 -31 -6
-29 -30 4 -51 46 -30 163 -23 330 20 157 41 166 42 161 25 -6 -18 -100 -46
-262 -79 -83 -16 -152 -32 -155 -34 -13 -14 124 -1 274 25 99 17 174 25 179
20 16 -16 -261 -81 -410 -95 -84 -9 -98 -15 -90 -43 18 -57 130 -59 381 -7
223 47 245 50 245 37 0 -20 -126 -59 -345 -108 -44 -10 -72 -19 -62 -22 25 -5
201 23 330 54 60 14 111 23 114 20 19 -19 -202 -86 -383 -116 -71 -12 -133
-25 -137 -29 -14 -14 27 -52 67 -61 46 -10 64 -7 328 54 217 51 212 50 202 35
-10 -17 -85 -46 -233 -90 -75 -23 -140 -46 -146 -51 -19 -20 100 1 245 43 163
46 205 48 110 2 -90 -42 -210 -79 -308 -93 -45 -7 -85 -16 -88 -21 -10 -16 18
-51 51 -65 69 -28 132 -19 326 51 99 36 187 65 195 65 54 0 -113 -84 -281
-141 -55 -19 -92 -35 -82 -37 34 -7 124 19 275 80 83 34 155 58 160 54 19 -19
-157 -106 -282 -139 -50 -13 -91 -28 -93 -34 -7 -19 28 -43 62 -43 44 0 132
33 263 99 57 29 111 51 120 49 22 -5 -48 -50 -131 -85 -34 -15 -71 -33 -82
-40 -18 -12 -18 -13 7 -13 15 0 75 20 132 45 58 25 111 45 118 45 23 -1 -38
-46 -126 -94 -47 -26 -86 -51 -86 -56 0 -14 36 -30 69 -30 17 0 75 24 135 55
155 81 171 72 31 -19 -90 -59 -66 -59 57 1 54 25 101 44 104 40 16 -15 -11
-39 -102 -87 l-97 -53 24 -19 c35 -29 80 -18 221 53 127 64 155 68 143 21 -10
-39 -21 -49 -75 -67 -70 -23 -98 -50 -131 -122 -15 -35 -45 -80 -64 -100 l-36
-38 21 -17 c20 -16 20 -17 -49 -77 -112 -96 -117 -97 -176 -25 -44 53 -73 57
-129 14 -22 -17 -45 -30 -51 -30 -20 0 -62 -38 -68 -60 -5 -21 -3 -21 58 -15
35 4 70 3 80 -2 14 -8 7 -14 -38 -36 -37 -19 -60 -38 -72 -62 -11 -19 -17 -37
-14 -40 3 -3 37 9 75 27 58 27 81 32 144 33 89 0 128 -21 156 -85 21 -46 27
-48 48 -18 23 32 20 55 -15 109 -17 27 -28 53 -24 59 13 21 210 173 240 185
16 7 49 16 73 20 37 6 42 4 42 -12 -1 -10 -43 -65 -95 -121 -102 -112 -119
-149 -63 -138 17 3 53 20 80 37 27 18 52 28 56 24 4 -4 -22 -35 -58 -69 -36
-34 -73 -72 -84 -84 -18 -21 -18 -22 8 -32 41 -15 72 -3 128 52 28 27 61 56
73 64 20 13 23 13 29 -1 3 -9 -7 -30 -28 -53 -18 -20 -48 -59 -66 -87 -18 -27
-46 -64 -63 -82 l-30 -32 27 -7 c36 -9 91 29 147 100 24 31 49 56 56 56 18 0
16 -13 -6 -41 -30 -39 -47 -79 -70 -162 -25 -92 -25 -97 -5 -97 9 0 28 29 50
78 20 42 40 83 46 89 25 31 22 -4 -10 -98 -37 -111 -33 -131 20 -103 36 18 45
13 68 -41 10 -24 23 -45 28 -49 5 -3 18 18 29 47 l19 52 47 -2 c26 -1 47 0 47
1 0 1 -9 28 -21 60 -30 86 -20 97 25 27 22 -34 45 -61 52 -61 24 0 26 21 6 43
-11 12 -30 47 -41 77 -19 50 -36 81 -73 132 -7 9 -9 20 -6 23 11 11 99 -46
110 -71 11 -24 32 -30 62 -18 9 3 16 11 16 18 0 13 -68 87 -118 128 -23 19
-32 34 -32 57 0 47 23 39 71 -24 41 -54 42 -55 93 -55 54 0 94 16 67 27 -29
12 -61 53 -61 79 0 21 4 25 17 20 9 -4 35 -9 58 -12 68 -8 129 40 66 52 -36 8
-66 35 -104 97 -16 27 -49 60 -78 78 -50 33 -61 55 -34 65 23 9 72 -15 122
-58 45 -38 79 -48 100 -27 9 9 29 -5 82 -56 39 -37 73 -76 76 -85 3 -9 -8 -43
-25 -75 -52 -98 -33 -134 31 -61 74 84 165 85 243 3 37 -38 39 -40 52 -22 8
10 14 27 14 36 0 24 -48 79 -79 91 -24 9 -25 10 -7 20 10 6 36 8 57 5 49 -6
57 6 26 37 -22 22 -31 24 -83 20 -58 -5 -59 -5 -38 13 12 10 30 23 40 29 18
11 17 12 -7 24 -31 14 -53 5 -117 -47 l-39 -32 -77 72 -78 72 21 27 c28 35 27
43 -14 68 -40 25 -89 84 -110 132 -17 43 -28 51 -90 72 -78 25 -117 53 -113
79 5 34 38 32 116 -7 88 -44 149 -60 190 -49 18 4 32 12 33 18 0 5 -38 25 -84
45 -90 37 -159 81 -139 88 6 2 46 -12 89 -31 43 -20 96 -40 118 -46 37 -9 38
-9 20 5 -11 8 -46 29 -77 46 -58 31 -101 68 -79 68 6 0 82 -32 169 -71 112
-50 173 -72 212 -76 57 -5 121 6 127 23 2 5 -54 26 -124 47 -151 45 -233 80
-264 113 -31 33 -14 30 88 -15 106 -46 194 -77 277 -96 120 -29 101 -16 -80
53 -148 57 -254 108 -254 122 0 17 21 11 129 -39 176 -81 277 -113 343 -109
56 4 108 32 91 49 -5 4 -52 19 -107 34 -170 46 -366 128 -366 154 0 22 21 18
92 -18 90 -45 176 -74 286 -96 136 -28 125 -12 -28 38 -187 62 -308 122 -287
143 3 3 68 -20 144 -51 210 -88 238 -96 348 -102 82 -5 107 -3 133 11 50 26
41 44 -25 51 -154 17 -368 89 -433 145 l-35 30 127 -45 c70 -24 154 -51 186
-60 69 -17 213 -34 206 -24 -2 4 -35 15 -74 23 -162 37 -370 120 -370 147 0 7
7 8 18 4 271 -117 457 -154 546 -110 53 27 56 42 9 50 -134 23 -290 58 -336
75 -52 20 -143 77 -135 85 2 2 46 -10 98 -26 129 -42 255 -69 315 -68 l50 1
-65 15 c-170 37 -238 56 -294 84 -71 35 -101 59 -73 59 9 0 110 -25 224 -56
271 -72 323 -73 358 -4 19 37 22 35 -110 51 -126 14 -267 49 -331 83 -65 33
-43 33 139 -5 207 -42 269 -36 87 9 -166 41 -262 73 -268 90 -7 21 34 13 175
-35 125 -42 147 -47 233 -47 76 -1 101 3 123 17 27 17 44 43 35 52 -2 2 -67
14 -143 25 -160 24 -269 50 -337 80 -51 22 -56 31 -34 49 8 6 16 21 19 33 6
20 3 20 -48 15 -70 -7 -113 5 -171 50 -70 53 -108 66 -168 57 -39 -5 -58 -14
-85 -41 -33 -33 -34 -35 -28 -99 7 -73 -3 -105 -40 -130 -14 -8 -33 -35 -44
-58 l-18 -43 -133 1 -133 1 -17 35 c-14 27 -28 38 -65 51 -56 18 -65 40 -33
74 l23 24 -26 6 c-15 4 -32 14 -39 22 -10 12 -9 18 7 29 17 13 17 15 1 32 -15
17 -15 21 -1 32 11 9 12 17 5 30 -16 29 -12 39 16 46 l25 7 -25 26 c-15 16
-29 46 -35 74 -10 56 -32 83 -86 108 -39 18 -104 23 -135 12z m-49 -97 c18
-38 3 -91 -27 -105 -25 -11 -26 -11 -20 16 4 15 9 35 12 44 5 18 -21 29 -68
29 -16 0 -28 4 -28 10 0 16 34 29 78 30 35 0 44 -4 53 -24z m98 -15 c16 -10 6
-31 -14 -31 -17 0 -28 17 -20 30 8 12 16 12 34 1z m-194 -60 c-7 -13 -72 -34
-88 -28 -17 5 42 36 71 37 13 0 21 -4 17 -9z"/>
</g>
</svg>
