<?xml version="1.0" standalone="no"?>
<!DOCTYPE svg PUBLIC "-//W3C//DTD SVG 20010904//EN"
 "http://www.w3.org/TR/2001/REC-SVG-20010904/DTD/svg10.dtd">
<svg version="1.0" xmlns="http://www.w3.org/2000/svg"
 width="1516.000000pt" height="505.000000pt" viewBox="0 0 1516.000000 505.000000"
 preserveAspectRatio="xMidYMid meet">

<g transform="translate(0.000000,505.000000) scale(0.100000,-0.100000)"
fill="#FF7D00" stroke="none">
<path d="M7221 5019 c-92 -22 -207 -36 -383 -45 l-138 -7 0 -130 0 -130 233 6
c230 6 315 16 430 53 26 9 47 19 47 22 0 4 -19 62 -42 130 -30 88 -46 122 -58
121 -8 -1 -48 -9 -89 -20z"/>
<path d="M6837 4600 c-171 -31 -284 -87 -392 -195 -123 -122 -198 -283 -240
-515 -22 -122 -32 -505 -16 -648 50 -463 222 -717 551 -812 93 -27 349 -39
457 -21 339 58 531 259 609 640 62 302 55 699 -16 983 -12 46 -44 130 -72 188
-43 89 -63 117 -132 186 -65 65 -98 89 -166 122 -126 60 -191 73 -375 77 -88
2 -182 0 -208 -5z m306 -414 c88 -43 112 -131 127 -456 11 -235 1 -595 -20
-719 -26 -155 -105 -218 -260 -209 -119 7 -179 58 -206 175 -26 112 -37 326
-31 626 8 441 32 540 147 592 49 21 191 16 243 -9z"/>
<path d="M10414 4596 c-356 -68 -551 -306 -621 -758 -20 -136 -23 -507 -4
-638 68 -467 254 -710 598 -782 133 -27 388 -22 503 12 156 45 294 142 376
264 66 97 123 260 156 446 18 103 18 627 0 730 -73 413 -241 631 -547 711
-103 27 -355 35 -461 15z m304 -401 c122 -51 141 -126 149 -590 10 -557 -18
-723 -130 -782 -42 -21 -160 -29 -217 -13 -58 16 -114 72 -130 129 -35 130
-50 443 -38 780 12 340 39 428 148 475 47 20 170 21 218 1z"/>
<path d="M14421 4600 c-214 -45 -366 -162 -445 -343 -80 -179 -74 -459 11
-620 15 -29 61 -86 103 -128 70 -69 90 -83 250 -163 96 -48 187 -99 202 -113
80 -76 85 -292 10 -377 -79 -88 -277 -69 -512 49 -38 19 -70 34 -70 33 0 -2
-16 -93 -35 -203 -19 -110 -35 -207 -35 -216 0 -12 26 -25 93 -47 148 -49 231
-63 403 -69 235 -8 349 18 497 115 156 102 242 271 254 502 13 242 -53 388
-232 515 -33 24 -125 77 -205 120 -80 42 -157 89 -172 103 -47 44 -70 123 -66
227 4 105 23 152 76 193 67 51 231 38 413 -33 34 -14 63 -24 64 -22 2 1 58
335 69 401 1 11 -104 41 -214 62 -100 18 -395 27 -459 14z"/>
<path d="M10 3500 l0 -1070 273 2 272 3 3 338 2 337 173 0 c205 1 302 16 401
63 130 62 223 185 266 352 48 187 48 492 -1 665 -53 192 -162 301 -354 357
-52 15 -121 18 -547 21 l-488 3 0 -1071z m776 641 c44 -27 73 -94 86 -201 21
-171 -18 -364 -82 -410 -24 -17 -45 -20 -129 -20 l-101 0 0 325 0 325 98 0
c78 0 103 -4 128 -19z"/>
<path d="M1760 3500 l0 -1070 585 0 585 0 0 210 0 210 -310 0 -310 0 0 225 0
225 250 0 250 0 0 210 0 210 -250 0 -250 0 0 220 0 220 260 0 c201 0 260 3
260 13 0 6 15 99 34 205 l33 192 -568 0 -569 0 0 -1070z"/>
<path d="M3080 4365 l0 -205 175 0 175 0 2 -862 3 -863 273 -3 272 -2 0 865 0
865 164 0 163 0 32 198 c17 108 31 200 31 205 0 4 -290 7 -645 7 l-645 0 0
-205z"/>
<path d="M4570 3501 l0 -1071 273 2 272 3 3 403 2 402 58 -6 c82 -9 118 -29
141 -77 11 -23 66 -195 123 -382 l103 -340 293 -3 c238 -2 292 0 292 11 0 28
-223 725 -250 782 -36 75 -88 128 -163 166 l-58 30 59 30 c73 36 164 129 197
201 43 94 58 173 58 303 -1 274 -90 470 -247 544 -125 60 -165 64 -683 68
l-473 4 0 -1070z m780 641 c62 -34 75 -76 75 -247 -1 -172 -11 -222 -56 -259
-29 -24 -37 -26 -140 -26 l-109 0 0 275 0 275 98 0 c75 0 105 -4 132 -18z"/>
<path d="M8170 3500 l0 -1070 273 2 272 3 3 336 2 337 208 5 c223 5 276 14
380 65 68 32 157 119 194 187 74 138 111 392 90 622 -6 71 -18 155 -27 188
-40 153 -127 270 -240 326 -128 63 -124 62 -662 66 l-493 4 0 -1071z m778 640
c44 -27 71 -90 85 -201 21 -166 -17 -359 -81 -409 -21 -17 -40 -20 -128 -20
l-104 0 0 325 0 325 98 0 c80 0 103 -4 130 -20z"/>
<path d="M11702 3503 l3 -1068 480 0 480 0 32 195 c17 107 32 201 32 208 1 9
-53 12 -239 12 l-240 0 0 860 0 860 -275 0 -275 0 2 -1067z"/>
<path d="M12920 4365 l0 -205 65 0 65 0 0 -655 0 -655 -65 0 -65 0 0 -210 0
-210 400 0 400 0 0 210 0 210 -65 0 -65 0 0 655 0 655 45 0 c52 0 43 -23 80
210 15 91 29 173 31 183 5 16 -19 17 -410 17 l-416 0 0 -205z"/>
<path d="M14022 998 c-172 -519 -312 -946 -312 -950 0 -5 63 -8 140 -8 77 0
140 2 140 5 0 2 24 82 54 177 30 95 71 226 91 291 l36 117 257 0 257 0 38
-123 c21 -67 63 -200 93 -294 l55 -173 141 0 c108 0 139 3 136 13 -3 6 -65
194 -137 417 -73 223 -211 645 -307 938 l-175 532 -98 0 -97 0 -312 -942z
m442 402 c20 -74 66 -231 102 -348 36 -118 64 -216 61 -218 -2 -2 -94 -3 -204
-2 l-200 3 74 245 c40 134 85 293 100 352 15 59 28 106 29 105 1 -1 18 -63 38
-137z"/>
<path d="M10 986 l0 -946 135 0 135 0 0 339 0 338 193 5 c155 5 204 9 254 26
171 55 277 178 320 373 22 100 22 338 0 436 -42 189 -141 300 -314 350 -47 13
-121 17 -390 21 l-333 4 0 -946z m604 713 c54 -15 119 -83 146 -155 17 -45 24
-87 27 -179 8 -182 -23 -289 -104 -367 -58 -56 -103 -68 -264 -68 l-139 0 0
390 0 390 148 0 c81 0 164 -5 186 -11z"/>
<path d="M1610 986 l0 -946 135 0 135 0 0 411 0 411 128 -4 c134 -4 168 -13
213 -61 42 -44 69 -114 276 -715 l15 -42 144 0 c81 0 144 4 144 9 0 12 -245
680 -270 737 -24 55 -84 121 -134 146 l-40 20 38 13 c116 40 210 155 247 305
21 81 18 280 -5 355 -35 115 -90 193 -172 241 -80 47 -152 56 -516 61 l-338 5
0 -946z m631 713 c98 -33 139 -105 147 -251 8 -165 -22 -265 -98 -331 -55 -47
-103 -57 -269 -57 l-141 0 0 325 0 325 164 0 c95 0 177 -5 197 -11z"/>
<path d="M3335 1918 c-3 -7 -4 -431 -3 -943 l3 -930 453 -3 452 -2 0 105 0
105 -315 0 -315 0 0 320 0 320 265 0 265 0 0 110 0 110 -265 0 -265 0 0 300 0
300 284 0 284 0 12 83 c6 45 14 94 17 110 l6 27 -437 0 c-340 0 -438 -3 -441
-12z"/>
<path d="M4790 985 l0 -945 135 0 135 0 0 415 0 415 245 0 245 0 0 105 0 105
-245 0 -245 0 0 315 0 315 274 0 274 0 6 28 c3 15 10 56 16 92 6 36 13 73 16
83 5 16 -20 17 -425 17 l-431 0 0 -945z"/>
<path d="M6200 985 l0 -945 455 0 455 0 0 105 0 105 -317 2 -318 3 -3 318 -2
317 270 0 271 0 -3 108 -3 107 -267 3 -268 2 0 300 0 300 287 2 288 3 12 80
c7 44 14 92 17 108 l6 27 -440 0 -440 0 0 -945z"/>
<path d="M7650 1820 l0 -110 50 0 50 0 0 -730 0 -730 -50 0 -50 0 0 -105 0
-105 235 0 235 0 0 104 0 105 -52 3 -53 3 -3 727 -2 727 42 3 42 3 13 75 c7
41 15 90 18 108 l6 32 -241 0 -240 0 0 -110z"/>
<path d="M8660 1820 l0 -110 200 0 200 0 0 -835 0 -835 135 0 135 0 0 835 0
835 195 0 c194 0 195 0 200 23 12 56 25 143 25 169 l0 28 -545 0 -545 0 0
-110z"/>
<path d="M10272 1213 c4 -702 4 -720 26 -796 45 -163 134 -277 266 -342 91
-45 185 -65 311 -65 315 0 519 151 582 430 15 67 17 154 18 780 l0 705 -132 3
-132 3 -4 -718 c-3 -626 -5 -725 -19 -771 -33 -106 -85 -168 -166 -196 -97
-34 -241 -28 -329 15 -52 25 -98 83 -128 162 -19 50 -20 83 -23 780 l-3 727
-135 0 -135 0 3 -717z"/>
<path d="M12080 986 l0 -946 135 0 135 0 0 410 0 410 108 0 c127 0 170 -10
217 -52 48 -42 77 -109 193 -443 56 -160 104 -298 107 -308 6 -15 23 -17 151
-17 79 0 144 4 144 8 0 9 -248 685 -273 743 -21 50 -82 116 -131 141 l-40 21
51 19 c31 11 72 39 106 71 89 86 132 193 143 351 14 215 -59 394 -192 472 -80
47 -152 56 -516 61 l-338 5 0 -946z m631 712 c97 -32 141 -109 147 -256 7
-160 -23 -260 -98 -325 -55 -47 -103 -57 -269 -57 l-141 0 0 325 0 325 164 0
c97 0 177 -5 197 -12z"/>
</g>
</svg>
